<svg xmlns="http://www.w3.org/2000/svg" xmlns:xlink="http://www.w3.org/1999/xlink" width="500" zoomAndPan="magnify" viewBox="0 0 375 374.999991" height="500" preserveAspectRatio="xMidYMid meet" version="1.0"><defs><clipPath id="6fd199ad09"><path d="M 112.5 112.5 L 262.5 112.5 L 262.5 262.5 L 112.5 262.5 Z M 112.5 112.5 " clip-rule="nonzero"/></clipPath></defs><rect x="-37.5" width="450" fill="#ffffff" y="-37.499999" height="449.999989" fill-opacity="1"/><rect x="-37.5" width="450" fill="#ffffff" y="-37.499999" height="449.999989" fill-opacity="1"/><path fill="#000000" d="M 187.5 231.464844 C 187.15625 231.464844 186.828125 231.53125 186.511719 231.664062 C 186.195312 231.792969 185.914062 231.980469 185.671875 232.222656 C 185.429688 232.464844 185.242188 232.746094 185.109375 233.0625 C 184.980469 233.378906 184.914062 233.707031 184.914062 234.050781 L 184.914062 238.164062 C 184.984375 238.445312 185.097656 238.703125 185.253906 238.945312 C 185.410156 239.1875 185.605469 239.398438 185.832031 239.574219 C 186.058594 239.75 186.308594 239.886719 186.582031 239.980469 C 186.855469 240.074219 187.132812 240.121094 187.421875 240.121094 C 187.710938 240.121094 187.992188 240.074219 188.261719 239.980469 C 188.535156 239.886719 188.785156 239.75 189.011719 239.574219 C 189.242188 239.398438 189.433594 239.1875 189.589844 238.945312 C 189.746094 238.703125 189.859375 238.445312 189.929688 238.164062 L 189.929688 234.050781 C 189.929688 233.722656 189.871094 233.402344 189.75 233.097656 C 189.628906 232.789062 189.457031 232.515625 189.230469 232.277344 C 189.003906 232.035156 188.742188 231.84375 188.441406 231.707031 C 188.144531 231.566406 187.828125 231.484375 187.5 231.464844 Z M 187.5 231.464844 " fill-opacity="1" fill-rule="nonzero"/><g clip-path="url(#6fd199ad09)"><path fill="#000000" d="M 187.5 112.5 C 186.273438 112.5 185.046875 112.53125 183.820312 112.589844 C 182.59375 112.652344 181.371094 112.742188 180.148438 112.859375 C 178.925781 112.980469 177.710938 113.132812 176.496094 113.3125 C 175.28125 113.492188 174.070312 113.703125 172.867188 113.941406 C 171.664062 114.179688 170.46875 114.449219 169.277344 114.746094 C 168.085938 115.046875 166.902344 115.375 165.730469 115.730469 C 164.554688 116.085938 163.390625 116.46875 162.234375 116.882812 C 161.078125 117.296875 159.933594 117.738281 158.796875 118.210938 C 157.664062 118.679688 156.542969 119.175781 155.433594 119.699219 C 154.324219 120.226562 153.226562 120.777344 152.144531 121.355469 C 151.0625 121.933594 149.996094 122.539062 148.941406 123.171875 C 147.890625 123.800781 146.851562 124.457031 145.832031 125.140625 C 144.8125 125.820312 143.808594 126.527344 142.824219 127.257812 C 141.835938 127.992188 140.871094 128.746094 139.921875 129.523438 C 138.972656 130.304688 138.042969 131.105469 137.132812 131.929688 C 136.222656 132.753906 135.335938 133.597656 134.46875 134.46875 C 133.597656 135.335938 132.753906 136.222656 131.929688 137.132812 C 131.105469 138.042969 130.304688 138.972656 129.523438 139.921875 C 128.746094 140.871094 127.992188 141.835938 127.257812 142.824219 C 126.527344 143.808594 125.820312 144.8125 125.140625 145.832031 C 124.457031 146.851562 123.800781 147.890625 123.171875 148.941406 C 122.539062 149.996094 121.933594 151.0625 121.355469 152.144531 C 120.777344 153.226562 120.226562 154.324219 119.699219 155.433594 C 119.175781 156.542969 118.679688 157.664062 118.210938 158.796875 C 117.738281 159.933594 117.296875 161.078125 116.882812 162.234375 C 116.46875 163.390625 116.085938 164.554688 115.730469 165.730469 C 115.375 166.902344 115.046875 168.085938 114.746094 169.277344 C 114.449219 170.46875 114.179688 171.664062 113.941406 172.867188 C 113.703125 174.070312 113.492188 175.28125 113.3125 176.496094 C 113.132812 177.710938 112.980469 178.925781 112.859375 180.148438 C 112.742188 181.371094 112.652344 182.59375 112.589844 183.820312 C 112.53125 185.046875 112.5 186.273438 112.5 187.5 C 112.5 188.726562 112.53125 189.953125 112.589844 191.179688 C 112.652344 192.40625 112.742188 193.628906 112.859375 194.851562 C 112.980469 196.074219 113.132812 197.289062 113.3125 198.503906 C 113.492188 199.71875 113.703125 200.929688 113.941406 202.132812 C 114.179688 203.335938 114.449219 204.53125 114.746094 205.722656 C 115.046875 206.914062 115.375 208.097656 115.730469 209.269531 C 116.085938 210.445312 116.46875 211.609375 116.882812 212.765625 C 117.296875 213.921875 117.738281 215.066406 118.210938 216.203125 C 118.679688 217.335938 119.175781 218.457031 119.699219 219.566406 C 120.226562 220.675781 120.777344 221.773438 121.355469 222.855469 C 121.933594 223.9375 122.539062 225.003906 123.171875 226.058594 C 123.800781 227.109375 124.457031 228.148438 125.140625 229.167969 C 125.820312 230.1875 126.527344 231.191406 127.257812 232.175781 C 127.992188 233.164062 128.746094 234.128906 129.523438 235.078125 C 130.304688 236.027344 131.105469 236.957031 131.929688 237.867188 C 132.753906 238.777344 133.597656 239.664062 134.46875 240.53125 C 135.335938 241.402344 136.222656 242.246094 137.132812 243.070312 C 138.042969 243.894531 138.972656 244.695312 139.921875 245.476562 C 140.871094 246.253906 141.835938 247.007812 142.824219 247.742188 C 143.808594 248.472656 144.8125 249.179688 145.832031 249.859375 C 146.851562 250.542969 147.890625 251.199219 148.941406 251.828125 C 149.996094 252.460938 151.0625 253.066406 152.144531 253.644531 C 153.226562 254.222656 154.324219 254.773438 155.433594 255.300781 C 156.542969 255.824219 157.664062 256.320312 158.796875 256.789062 C 159.933594 257.261719 161.078125 257.703125 162.234375 258.117188 C 163.390625 258.527344 164.554688 258.914062 165.730469 259.269531 C 166.902344 259.625 168.085938 259.953125 169.277344 260.253906 C 170.46875 260.550781 171.664062 260.820312 172.867188 261.058594 C 174.070312 261.296875 175.28125 261.507812 176.496094 261.6875 C 177.710938 261.867188 178.925781 262.019531 180.148438 262.140625 C 181.371094 262.257812 182.59375 262.347656 183.820312 262.410156 C 185.046875 262.46875 186.273438 262.5 187.5 262.5 C 188.726562 262.5 189.953125 262.46875 191.179688 262.410156 C 192.40625 262.347656 193.628906 262.257812 194.851562 262.140625 C 196.074219 262.019531 197.289062 261.867188 198.503906 261.6875 C 199.71875 261.507812 200.929688 261.296875 202.132812 261.058594 C 203.335938 260.820312 204.53125 260.550781 205.722656 260.253906 C 206.914062 259.953125 208.097656 259.625 209.269531 259.269531 C 210.445312 258.914062 211.609375 258.527344 212.765625 258.117188 C 213.921875 257.703125 215.066406 257.261719 216.203125 256.789062 C 217.335938 256.320312 218.457031 255.824219 219.566406 255.300781 C 220.675781 254.773438 221.773438 254.222656 222.855469 253.644531 C 223.9375 253.066406 225.003906 252.460938 226.058594 251.828125 C 227.109375 251.199219 228.148438 250.542969 229.167969 249.859375 C 230.1875 249.179688 231.191406 248.472656 232.175781 247.742188 C 233.164062 247.007812 234.128906 246.253906 235.078125 245.476562 C 236.027344 244.695312 236.957031 243.894531 237.867188 243.070312 C 238.777344 242.246094 239.664062 241.402344 240.53125 240.53125 C 241.402344 239.664062 242.246094 238.777344 243.070312 237.867188 C 243.894531 236.957031 244.695312 236.027344 245.476562 235.078125 C 246.253906 234.128906 247.007812 233.164062 247.742188 232.175781 C 248.472656 231.191406 249.179688 230.1875 249.859375 229.167969 C 250.542969 228.148438 251.199219 227.109375 251.828125 226.058594 C 252.460938 225.003906 253.066406 223.9375 253.644531 222.855469 C 254.222656 221.773438 254.773438 220.675781 255.300781 219.566406 C 255.824219 218.457031 256.320312 217.335938 256.789062 216.203125 C 257.261719 215.066406 257.703125 213.921875 258.117188 212.765625 C 258.53125 211.609375 258.914062 210.445312 259.269531 209.269531 C 259.625 208.097656 259.953125 206.914062 260.253906 205.722656 C 260.550781 204.53125 260.820312 203.335938 261.058594 202.132812 C 261.296875 200.929688 261.507812 199.71875 261.6875 198.503906 C 261.867188 197.289062 262.019531 196.074219 262.140625 194.851562 C 262.257812 193.628906 262.347656 192.40625 262.410156 191.179688 C 262.46875 189.953125 262.5 188.726562 262.5 187.5 C 262.5 186.273438 262.46875 185.046875 262.410156 183.820312 C 262.347656 182.59375 262.257812 181.371094 262.140625 180.148438 C 262.019531 178.925781 261.867188 177.710938 261.6875 176.496094 C 261.507812 175.28125 261.296875 174.070312 261.058594 172.867188 C 260.820312 171.664062 260.550781 170.46875 260.253906 169.277344 C 259.953125 168.085938 259.625 166.902344 259.269531 165.730469 C 258.914062 164.554688 258.527344 163.390625 258.117188 162.234375 C 257.703125 161.078125 257.261719 159.933594 256.789062 158.796875 C 256.320312 157.664062 255.824219 156.542969 255.300781 155.433594 C 254.773438 154.324219 254.222656 153.226562 253.644531 152.144531 C 253.066406 151.0625 252.460938 149.996094 251.828125 148.941406 C 251.199219 147.890625 250.542969 146.851562 249.859375 145.832031 C 249.179688 144.8125 248.472656 143.808594 247.742188 142.824219 C 247.007812 141.835938 246.253906 140.871094 245.476562 139.921875 C 244.695312 138.972656 243.894531 138.042969 243.070312 137.132812 C 242.246094 136.222656 241.402344 135.335938 240.53125 134.46875 C 239.664062 133.597656 238.777344 132.753906 237.867188 131.929688 C 236.957031 131.105469 236.027344 130.304688 235.078125 129.523438 C 234.128906 128.746094 233.164062 127.992188 232.175781 127.257812 C 231.191406 126.527344 230.1875 125.820312 229.167969 125.140625 C 228.148438 124.457031 227.109375 123.800781 226.058594 123.171875 C 225.003906 122.539062 223.9375 121.933594 222.855469 121.355469 C 221.773438 120.777344 220.675781 120.226562 219.566406 119.699219 C 218.457031 119.175781 217.335938 118.679688 216.203125 118.210938 C 215.066406 117.738281 213.921875 117.296875 212.765625 116.882812 C 211.609375 116.46875 210.445312 116.085938 209.269531 115.730469 C 208.097656 115.375 206.914062 115.046875 205.722656 114.746094 C 204.53125 114.449219 203.335938 114.179688 202.132812 113.941406 C 200.929688 113.703125 199.71875 113.492188 198.503906 113.3125 C 197.289062 113.132812 196.074219 112.980469 194.851562 112.859375 C 193.628906 112.742188 192.40625 112.652344 191.179688 112.589844 C 189.953125 112.53125 188.726562 112.5 187.5 112.5 Z M 187.5 257.507812 C 186.355469 257.507812 185.210938 257.480469 184.066406 257.425781 C 182.921875 257.367188 181.777344 257.285156 180.636719 257.171875 C 179.496094 257.058594 178.359375 256.917969 177.226562 256.75 C 176.09375 256.582031 174.964844 256.386719 173.84375 256.164062 C 172.71875 255.941406 171.601562 255.6875 170.488281 255.410156 C 169.378906 255.132812 168.273438 254.828125 167.175781 254.492188 C 166.082031 254.160156 164.992188 253.800781 163.914062 253.417969 C 162.835938 253.03125 161.765625 252.617188 160.707031 252.179688 C 159.648438 251.742188 158.601562 251.277344 157.566406 250.785156 C 156.53125 250.296875 155.507812 249.78125 154.5 249.242188 C 153.488281 248.703125 152.492188 248.136719 151.507812 247.546875 C 150.527344 246.960938 149.558594 246.347656 148.605469 245.710938 C 147.652344 245.074219 146.714844 244.414062 145.796875 243.730469 C 144.875 243.050781 143.972656 242.34375 143.085938 241.617188 C 142.203125 240.890625 141.335938 240.140625 140.484375 239.371094 C 139.636719 238.601562 138.804688 237.8125 137.996094 237.003906 C 137.1875 236.195312 136.394531 235.363281 135.628906 234.515625 C 134.859375 233.664062 134.109375 232.796875 133.382812 231.914062 C 132.65625 231.027344 131.949219 230.125 131.269531 229.203125 C 130.585938 228.285156 129.925781 227.347656 129.289062 226.394531 C 128.652344 225.441406 128.039062 224.472656 127.453125 223.492188 C 126.863281 222.507812 126.296875 221.511719 125.757812 220.5 C 125.21875 219.492188 124.703125 218.46875 124.214844 217.433594 C 123.722656 216.398438 123.257812 215.351562 122.820312 214.292969 C 122.382812 213.234375 121.96875 212.164062 121.582031 211.085938 C 121.199219 210.007812 120.839844 208.917969 120.507812 207.824219 C 120.171875 206.726562 119.867188 205.621094 119.589844 204.511719 C 119.3125 203.398438 119.058594 202.28125 118.835938 201.15625 C 118.613281 200.035156 118.417969 198.90625 118.25 197.773438 C 118.082031 196.640625 117.941406 195.503906 117.828125 194.363281 C 117.714844 193.222656 117.632812 192.078125 117.574219 190.933594 C 117.519531 189.789062 117.492188 188.644531 117.492188 187.5 C 117.492188 186.355469 117.519531 185.210938 117.574219 184.066406 C 117.632812 182.921875 117.714844 181.777344 117.828125 180.636719 C 117.941406 179.496094 118.082031 178.359375 118.25 177.226562 C 118.417969 176.09375 118.613281 174.964844 118.835938 173.84375 C 119.058594 172.71875 119.3125 171.601562 119.589844 170.488281 C 119.867188 169.378906 120.171875 168.273438 120.507812 167.175781 C 120.839844 166.082031 121.199219 164.992188 121.582031 163.914062 C 121.96875 162.835938 122.382812 161.765625 122.820312 160.707031 C 123.257812 159.648438 123.722656 158.601562 124.214844 157.566406 C 124.703125 156.53125 125.21875 155.507812 125.757812 154.5 C 126.296875 153.488281 126.863281 152.492188 127.453125 151.507812 C 128.039062 150.527344 128.652344 149.558594 129.289062 148.605469 C 129.925781 147.652344 130.585938 146.714844 131.269531 145.796875 C 131.949219 144.875 132.65625 143.972656 133.382812 143.085938 C 134.109375 142.203125 134.859375 141.335938 135.628906 140.484375 C 136.394531 139.636719 137.1875 138.804688 137.996094 137.996094 C 138.804688 137.1875 139.636719 136.394531 140.484375 135.628906 C 141.335938 134.859375 142.203125 134.109375 143.085938 133.382812 C 143.972656 132.65625 144.875 131.949219 145.796875 131.269531 C 146.714844 130.585938 147.652344 129.925781 148.605469 129.289062 C 149.558594 128.652344 150.527344 128.039062 151.507812 127.453125 C 152.492188 126.863281 153.488281 126.296875 154.5 125.757812 C 155.507812 125.21875 156.53125 124.703125 157.566406 124.214844 C 158.601562 123.722656 159.648438 123.257812 160.707031 122.820312 C 161.765625 122.382812 162.835938 121.96875 163.914062 121.582031 C 164.992188 121.199219 166.082031 120.839844 167.175781 120.507812 C 168.273438 120.171875 169.378906 119.867188 170.488281 119.589844 C 171.601562 119.3125 172.71875 119.058594 173.84375 118.835938 C 174.964844 118.613281 176.09375 118.417969 177.226562 118.25 C 178.359375 118.082031 179.496094 117.941406 180.636719 117.828125 C 181.777344 117.714844 182.921875 117.632812 184.066406 117.574219 C 185.210938 117.519531 186.355469 117.492188 187.5 117.492188 C 188.644531 117.492188 189.789062 117.519531 190.933594 117.574219 C 192.078125 117.632812 193.222656 117.714844 194.363281 117.828125 C 195.503906 117.941406 196.640625 118.082031 197.773438 118.25 C 198.90625 118.417969 200.035156 118.613281 201.15625 118.835938 C 202.28125 119.058594 203.398438 119.3125 204.511719 119.589844 C 205.621094 119.867188 206.726562 120.171875 207.824219 120.507812 C 208.917969 120.839844 210.007812 121.199219 211.085938 121.582031 C 212.164062 121.96875 213.234375 122.382812 214.292969 122.820312 C 215.351562 123.257812 216.398438 123.722656 217.433594 124.214844 C 218.46875 124.703125 219.492188 125.21875 220.5 125.757812 C 221.511719 126.296875 222.507812 126.863281 223.492188 127.453125 C 224.472656 128.039062 225.441406 128.652344 226.394531 129.289062 C 227.347656 129.925781 228.285156 130.585938 229.203125 131.269531 C 230.125 131.949219 231.027344 132.65625 231.914062 133.382812 C 232.796875 134.109375 233.664062 134.859375 234.515625 135.628906 C 235.363281 136.394531 236.195312 137.1875 237.003906 137.996094 C 237.8125 138.804688 238.605469 139.636719 239.371094 140.484375 C 240.140625 141.335938 240.890625 142.203125 241.617188 143.085938 C 242.34375 143.972656 243.050781 144.875 243.730469 145.796875 C 244.414062 146.714844 245.074219 147.652344 245.710938 148.605469 C 246.347656 149.558594 246.960938 150.527344 247.546875 151.507812 C 248.136719 152.492188 248.703125 153.488281 249.242188 154.5 C 249.78125 155.507812 250.296875 156.53125 250.785156 157.566406 C 251.277344 158.601562 251.742188 159.648438 252.179688 160.707031 C 252.617188 161.765625 253.03125 162.835938 253.417969 163.914062 C 253.800781 164.992188 254.160156 166.082031 254.492188 167.175781 C 254.828125 168.273438 255.132812 169.378906 255.410156 170.488281 C 255.6875 171.601562 255.941406 172.71875 256.164062 173.84375 C 256.386719 174.964844 256.582031 176.09375 256.75 177.226562 C 256.917969 178.359375 257.058594 179.496094 257.171875 180.636719 C 257.285156 181.777344 257.367188 182.921875 257.425781 184.066406 C 257.480469 185.210938 257.507812 186.355469 257.507812 187.5 C 257.507812 188.644531 257.476562 189.789062 257.417969 190.933594 C 257.363281 192.078125 257.277344 193.21875 257.164062 194.359375 C 257.046875 195.5 256.90625 196.632812 256.738281 197.765625 C 256.566406 198.898438 256.371094 200.027344 256.144531 201.152344 C 255.921875 202.273438 255.667969 203.390625 255.390625 204.5 C 255.109375 205.613281 254.804688 206.714844 254.472656 207.8125 C 254.136719 208.90625 253.777344 209.992188 253.390625 211.070312 C 253.003906 212.148438 252.589844 213.21875 252.152344 214.273438 C 251.710938 215.332031 251.25 216.378906 250.757812 217.414062 C 250.265625 218.449219 249.753906 219.472656 249.210938 220.480469 C 248.671875 221.492188 248.105469 222.488281 247.515625 223.46875 C 246.929688 224.449219 246.316406 225.417969 245.679688 226.371094 C 245.042969 227.324219 244.382812 228.257812 243.699219 229.179688 C 243.015625 230.097656 242.3125 231 241.585938 231.886719 C 240.859375 232.769531 240.109375 233.636719 239.34375 234.484375 C 238.574219 235.335938 237.78125 236.164062 236.972656 236.972656 C 236.164062 237.78125 235.335938 238.574219 234.484375 239.34375 C 233.636719 240.109375 232.769531 240.859375 231.886719 241.585938 C 231 242.3125 230.097656 243.015625 229.179688 243.699219 C 228.257812 244.382812 227.324219 245.042969 226.371094 245.679688 C 225.417969 246.316406 224.453125 246.929688 223.46875 247.515625 C 222.488281 248.105469 221.492188 248.671875 220.480469 249.210938 C 219.472656 249.753906 218.449219 250.265625 217.414062 250.757812 C 216.378906 251.25 215.332031 251.710938 214.273438 252.152344 C 213.21875 252.589844 212.148438 253.003906 211.070312 253.390625 C 209.992188 253.777344 208.90625 254.136719 207.8125 254.472656 C 206.714844 254.804688 205.613281 255.109375 204.5 255.390625 C 203.390625 255.667969 202.273438 255.921875 201.152344 256.144531 C 200.027344 256.371094 198.898438 256.566406 197.765625 256.738281 C 196.632812 256.90625 195.5 257.046875 194.359375 257.164062 C 193.21875 257.277344 192.078125 257.363281 190.933594 257.417969 C 189.789062 257.476562 188.644531 257.507812 187.5 257.507812 Z M 187.5 257.507812 " fill-opacity="1" fill-rule="nonzero"/></g><path fill="#000000" d="M 187.5 125.25 C 185.460938 125.25 183.425781 125.351562 181.398438 125.550781 C 179.371094 125.75 177.355469 126.046875 175.355469 126.445312 C 173.355469 126.84375 171.378906 127.339844 169.429688 127.929688 C 167.480469 128.523438 165.5625 129.207031 163.679688 129.988281 C 161.792969 130.769531 159.953125 131.640625 158.15625 132.601562 C 156.359375 133.5625 154.609375 134.609375 152.914062 135.742188 C 151.21875 136.875 149.585938 138.085938 148.007812 139.378906 C 146.433594 140.671875 144.925781 142.039062 143.484375 143.484375 C 142.039062 144.925781 140.671875 146.433594 139.378906 148.007812 C 138.085938 149.585938 136.875 151.21875 135.742188 152.914062 C 134.609375 154.609375 133.5625 156.359375 132.601562 158.15625 C 131.640625 159.953125 130.769531 161.792969 129.988281 163.679688 C 129.207031 165.5625 128.523438 167.480469 127.929688 169.429688 C 127.339844 171.378906 126.84375 173.355469 126.445312 175.355469 C 126.046875 177.355469 125.75 179.371094 125.550781 181.398438 C 125.351562 183.425781 125.25 185.460938 125.25 187.5 C 125.25 189.539062 125.351562 191.574219 125.550781 193.601562 C 125.75 195.628906 126.046875 197.644531 126.445312 199.644531 C 126.84375 201.644531 127.339844 203.621094 127.929688 205.570312 C 128.523438 207.519531 129.207031 209.4375 129.988281 211.320312 C 130.769531 213.207031 131.640625 215.046875 132.601562 216.84375 C 133.5625 218.640625 134.609375 220.390625 135.742188 222.085938 C 136.875 223.78125 138.085938 225.414062 139.378906 226.992188 C 140.671875 228.566406 142.039062 230.074219 143.484375 231.515625 C 144.925781 232.960938 146.433594 234.328125 148.007812 235.621094 C 149.585938 236.914062 151.21875 238.125 152.914062 239.257812 C 154.609375 240.390625 156.359375 241.4375 158.15625 242.398438 C 159.953125 243.359375 161.792969 244.230469 163.679688 245.011719 C 165.5625 245.792969 167.480469 246.476562 169.429688 247.070312 C 171.378906 247.660156 173.355469 248.15625 175.355469 248.554688 C 177.355469 248.953125 179.371094 249.25 181.398438 249.449219 C 183.425781 249.648438 185.460938 249.75 187.5 249.75 C 189.539062 249.75 191.574219 249.648438 193.601562 249.449219 C 195.628906 249.25 197.644531 248.953125 199.644531 248.554688 C 201.644531 248.15625 203.621094 247.660156 205.570312 247.070312 C 207.519531 246.476562 209.4375 245.792969 211.320312 245.011719 C 213.207031 244.230469 215.046875 243.359375 216.84375 242.398438 C 218.640625 241.4375 220.390625 240.390625 222.085938 239.257812 C 223.78125 238.125 225.414062 236.914062 226.992188 235.621094 C 228.566406 234.328125 230.074219 232.960938 231.515625 231.515625 C 232.957031 230.074219 234.328125 228.566406 235.621094 226.992188 C 236.914062 225.414062 238.125 223.78125 239.257812 222.085938 C 240.390625 220.390625 241.4375 218.640625 242.398438 216.84375 C 243.359375 215.046875 244.230469 213.207031 245.011719 211.320312 C 245.792969 209.4375 246.476562 207.519531 247.070312 205.570312 C 247.660156 203.621094 248.15625 201.644531 248.554688 199.644531 C 248.953125 197.644531 249.25 195.628906 249.449219 193.601562 C 249.648438 191.574219 249.75 189.539062 249.75 187.5 C 249.746094 185.460938 249.644531 183.429688 249.441406 181.402344 C 249.242188 179.371094 248.941406 177.359375 248.542969 175.359375 C 248.140625 173.363281 247.644531 171.386719 247.050781 169.4375 C 246.460938 167.488281 245.773438 165.574219 244.992188 163.691406 C 244.210938 161.808594 243.339844 159.96875 242.375 158.171875 C 241.414062 156.375 240.367188 154.628906 239.234375 152.933594 C 238.101562 151.238281 236.890625 149.605469 235.597656 148.03125 C 234.304688 146.453125 232.9375 144.945312 231.496094 143.503906 C 230.054688 142.0625 228.546875 140.695312 226.96875 139.402344 C 225.394531 138.109375 223.761719 136.898438 222.066406 135.765625 C 220.371094 134.632812 218.625 133.585938 216.828125 132.625 C 215.03125 131.660156 213.191406 130.789062 211.308594 130.007812 C 209.425781 129.226562 207.511719 128.539062 205.5625 127.949219 C 203.613281 127.355469 201.636719 126.859375 199.640625 126.457031 C 197.640625 126.058594 195.628906 125.757812 193.597656 125.558594 C 191.570312 125.355469 189.539062 125.253906 187.5 125.25 Z M 187.5 244.757812 C 185.625 244.757812 183.753906 244.667969 181.886719 244.484375 C 180.019531 244.300781 178.167969 244.023438 176.328125 243.660156 C 174.488281 243.292969 172.671875 242.835938 170.878906 242.292969 C 169.085938 241.75 167.320312 241.117188 165.589844 240.398438 C 163.855469 239.683594 162.164062 238.882812 160.507812 237.996094 C 158.855469 237.113281 157.25 236.152344 155.6875 235.109375 C 154.128906 234.066406 152.625 232.949219 151.175781 231.761719 C 149.726562 230.570312 148.339844 229.3125 147.011719 227.988281 C 145.6875 226.660156 144.429688 225.273438 143.238281 223.824219 C 142.046875 222.375 140.933594 220.871094 139.890625 219.3125 C 138.847656 217.75 137.886719 216.144531 137.003906 214.492188 C 136.117188 212.835938 135.316406 211.144531 134.601562 209.410156 C 133.882812 207.679688 133.25 205.914062 132.707031 204.121094 C 132.164062 202.328125 131.707031 200.511719 131.339844 198.671875 C 130.976562 196.832031 130.699219 194.980469 130.515625 193.113281 C 130.332031 191.246094 130.242188 189.375 130.242188 187.5 C 130.242188 185.625 130.332031 183.753906 130.515625 181.886719 C 130.699219 180.019531 130.976562 178.167969 131.339844 176.328125 C 131.707031 174.488281 132.164062 172.671875 132.707031 170.878906 C 133.25 169.085938 133.882812 167.320312 134.601562 165.589844 C 135.316406 163.855469 136.117188 162.164062 137.003906 160.507812 C 137.886719 158.855469 138.847656 157.246094 139.890625 155.6875 C 140.933594 154.128906 142.046875 152.625 143.238281 151.175781 C 144.429688 149.726562 145.6875 148.339844 147.011719 147.011719 C 148.339844 145.6875 149.726562 144.429688 151.175781 143.238281 C 152.625 142.046875 154.128906 140.933594 155.6875 139.890625 C 157.25 138.847656 158.855469 137.886719 160.507812 137.003906 C 162.164062 136.117188 163.855469 135.316406 165.589844 134.601562 C 167.320312 133.882812 169.085938 133.25 170.878906 132.707031 C 172.671875 132.164062 174.488281 131.707031 176.328125 131.339844 C 178.167969 130.976562 180.019531 130.699219 181.886719 130.515625 C 183.753906 130.332031 185.625 130.242188 187.5 130.242188 C 189.375 130.242188 191.246094 130.332031 193.113281 130.515625 C 194.980469 130.699219 196.832031 130.976562 198.671875 131.339844 C 200.511719 131.707031 202.328125 132.164062 204.121094 132.707031 C 205.914062 133.25 207.679688 133.882812 209.410156 134.601562 C 211.144531 135.316406 212.835938 136.117188 214.492188 137.003906 C 216.144531 137.886719 217.75 138.847656 219.3125 139.890625 C 220.871094 140.933594 222.375 142.046875 223.824219 143.238281 C 225.273438 144.429688 226.660156 145.6875 227.988281 147.011719 C 229.3125 148.339844 230.570312 149.726562 231.761719 151.175781 C 232.953125 152.625 234.066406 154.128906 235.109375 155.6875 C 236.152344 157.246094 237.113281 158.855469 237.996094 160.507812 C 238.882812 162.164062 239.683594 163.855469 240.398438 165.589844 C 241.117188 167.320312 241.75 169.085938 242.292969 170.878906 C 242.835938 172.671875 243.292969 174.488281 243.660156 176.328125 C 244.023438 178.167969 244.300781 180.019531 244.484375 181.886719 C 244.667969 183.753906 244.757812 185.625 244.757812 187.5 C 244.757812 189.375 244.664062 191.246094 244.476562 193.109375 C 244.292969 194.976562 244.015625 196.828125 243.648438 198.667969 C 243.28125 200.503906 242.828125 202.320312 242.28125 204.117188 C 241.734375 205.910156 241.105469 207.671875 240.386719 209.402344 C 239.667969 211.136719 238.867188 212.828125 237.980469 214.480469 C 237.097656 216.132812 236.136719 217.742188 235.09375 219.300781 C 234.050781 220.859375 232.933594 222.363281 231.746094 223.8125 C 230.554688 225.257812 229.296875 226.648438 227.972656 227.972656 C 226.648438 229.296875 225.257812 230.554688 223.8125 231.746094 C 222.363281 232.933594 220.859375 234.050781 219.300781 235.09375 C 217.742188 236.136719 216.132812 237.097656 214.480469 237.980469 C 212.828125 238.867188 211.136719 239.667969 209.402344 240.386719 C 207.671875 241.105469 205.910156 241.734375 204.117188 242.28125 C 202.320312 242.828125 200.503906 243.28125 198.667969 243.648438 C 196.828125 244.015625 194.976562 244.292969 193.109375 244.476562 C 191.246094 244.664062 189.375 244.757812 187.5 244.757812 Z M 187.5 244.757812 " fill-opacity="1" fill-rule="nonzero"/><path fill="#000000" d="M 187.5 143.535156 C 187.84375 143.535156 188.171875 143.46875 188.488281 143.335938 C 188.804688 143.207031 189.085938 143.019531 189.328125 142.777344 C 189.570312 142.535156 189.757812 142.253906 189.890625 141.9375 C 190.019531 141.621094 190.085938 141.292969 190.085938 140.949219 L 190.085938 136.964844 C 190.015625 136.6875 189.902344 136.425781 189.746094 136.183594 C 189.589844 135.941406 189.394531 135.734375 189.167969 135.554688 C 188.941406 135.378906 188.691406 135.242188 188.417969 135.148438 C 188.144531 135.054688 187.867188 135.007812 187.578125 135.007812 C 187.289062 135.007812 187.007812 135.054688 186.738281 135.148438 C 186.464844 135.242188 186.214844 135.378906 185.988281 135.554688 C 185.757812 135.734375 185.566406 135.941406 185.410156 136.183594 C 185.253906 136.425781 185.140625 136.6875 185.070312 136.964844 L 185.070312 141.078125 C 185.085938 141.394531 185.15625 141.703125 185.285156 141.992188 C 185.414062 142.285156 185.589844 142.546875 185.8125 142.773438 C 186.039062 143 186.296875 143.175781 186.585938 143.308594 C 186.878906 143.441406 187.179688 143.515625 187.5 143.535156 Z M 187.5 143.535156 " fill-opacity="1" fill-rule="nonzero"/><path fill="#000000" d="M 234.050781 190.085938 L 238.164062 190.085938 C 238.445312 190.015625 238.703125 189.902344 238.945312 189.746094 C 239.1875 189.589844 239.398438 189.394531 239.574219 189.167969 C 239.75 188.941406 239.886719 188.691406 239.980469 188.417969 C 240.074219 188.144531 240.121094 187.867188 240.121094 187.578125 C 240.121094 187.289062 240.074219 187.007812 239.980469 186.734375 C 239.886719 186.464844 239.75 186.214844 239.574219 185.988281 C 239.398438 185.757812 239.1875 185.566406 238.945312 185.410156 C 238.703125 185.253906 238.445312 185.140625 238.164062 185.070312 L 234.050781 185.070312 C 233.859375 185.019531 233.667969 184.996094 233.472656 184.992188 C 233.273438 184.988281 233.078125 185.007812 232.886719 185.046875 C 232.695312 185.089844 232.511719 185.148438 232.332031 185.234375 C 232.152344 185.316406 231.988281 185.417969 231.832031 185.539062 C 231.675781 185.660156 231.539062 185.796875 231.414062 185.949219 C 231.289062 186.101562 231.183594 186.265625 231.097656 186.441406 C 231.011719 186.621094 230.949219 186.804688 230.902344 186.996094 C 230.859375 187.1875 230.835938 187.382812 230.835938 187.578125 C 230.835938 187.773438 230.859375 187.96875 230.902344 188.160156 C 230.949219 188.351562 231.011719 188.535156 231.097656 188.710938 C 231.183594 188.886719 231.289062 189.054688 231.414062 189.207031 C 231.539062 189.359375 231.675781 189.496094 231.832031 189.617188 C 231.988281 189.738281 232.152344 189.839844 232.332031 189.921875 C 232.511719 190.003906 232.695312 190.066406 232.886719 190.109375 C 233.078125 190.148438 233.273438 190.167969 233.472656 190.164062 C 233.667969 190.160156 233.859375 190.132812 234.050781 190.085938 Z M 234.050781 190.085938 " fill-opacity="1" fill-rule="nonzero"/><path fill="#000000" d="M 141.078125 184.914062 L 136.964844 184.914062 C 136.6875 184.984375 136.425781 185.097656 136.183594 185.253906 C 135.941406 185.410156 135.734375 185.605469 135.554688 185.832031 C 135.378906 186.058594 135.242188 186.308594 135.148438 186.582031 C 135.054688 186.855469 135.007812 187.132812 135.007812 187.421875 C 135.007812 187.710938 135.054688 187.992188 135.148438 188.261719 C 135.242188 188.535156 135.378906 188.785156 135.554688 189.011719 C 135.734375 189.242188 135.941406 189.433594 136.183594 189.589844 C 136.425781 189.746094 136.6875 189.859375 136.964844 189.929688 L 141.078125 189.929688 C 141.355469 189.859375 141.617188 189.746094 141.859375 189.589844 C 142.101562 189.433594 142.308594 189.242188 142.488281 189.011719 C 142.664062 188.785156 142.800781 188.535156 142.894531 188.261719 C 142.988281 187.992188 143.035156 187.710938 143.035156 187.421875 C 143.035156 187.132812 142.988281 186.855469 142.894531 186.582031 C 142.800781 186.308594 142.664062 186.058594 142.488281 185.832031 C 142.308594 185.605469 142.101562 185.410156 141.859375 185.253906 C 141.617188 185.097656 141.355469 184.984375 141.078125 184.914062 Z M 141.078125 184.914062 " fill-opacity="1" fill-rule="nonzero"/><path fill="#000000" d="M 210.15625 157.058594 L 186.335938 184.914062 L 158.585938 184.914062 C 158.304688 184.984375 158.046875 185.097656 157.804688 185.253906 C 157.5625 185.410156 157.351562 185.605469 157.175781 185.832031 C 157 186.058594 156.863281 186.308594 156.769531 186.582031 C 156.675781 186.855469 156.628906 187.132812 156.628906 187.421875 C 156.628906 187.710938 156.675781 187.992188 156.769531 188.261719 C 156.863281 188.535156 157 188.785156 157.175781 189.011719 C 157.351562 189.242188 157.5625 189.433594 157.804688 189.589844 C 158.046875 189.746094 158.304688 189.859375 158.585938 189.929688 L 187.5 189.929688 C 188.269531 189.921875 188.90625 189.628906 189.414062 189.050781 L 213.957031 160.214844 C 214.121094 160.101562 214.269531 159.972656 214.40625 159.828125 C 214.539062 159.679688 214.65625 159.519531 214.75 159.347656 C 214.847656 159.171875 214.925781 158.992188 214.980469 158.800781 C 215.035156 158.609375 215.070312 158.414062 215.078125 158.214844 C 215.089844 158.019531 215.078125 157.820312 215.042969 157.625 C 215.007812 157.429688 214.949219 157.238281 214.871094 157.058594 C 214.792969 156.875 214.695312 156.703125 214.578125 156.542969 C 214.457031 156.382812 214.324219 156.238281 214.171875 156.109375 C 214.019531 155.980469 213.855469 155.871094 213.679688 155.78125 C 213.503906 155.691406 213.316406 155.621094 213.125 155.574219 C 212.933594 155.523438 212.738281 155.5 212.539062 155.496094 C 212.339844 155.492188 212.140625 155.511719 211.949219 155.554688 C 211.753906 155.597656 211.566406 155.660156 211.386719 155.746094 C 211.207031 155.832031 211.039062 155.933594 210.882812 156.058594 C 210.730469 156.183594 210.589844 156.324219 210.464844 156.480469 C 210.34375 156.632812 210.238281 156.804688 210.15625 156.984375 Z M 210.15625 157.058594 " fill-opacity="1" fill-rule="nonzero"/></svg>