<svg xmlns="http://www.w3.org/2000/svg" xmlns:xlink="http://www.w3.org/1999/xlink" width="1280" zoomAndPan="magnify" viewBox="0 0 960 599.999999" height="800" preserveAspectRatio="xMidYMid meet" version="1.0"><path fill="#ffe81c" d="M 468.179688 392.765625 C 468.660156 393.289062 469.085938 393.847656 469.460938 394.449219 C 469.835938 395.050781 470.152344 395.683594 470.40625 396.34375 C 470.660156 397.003906 470.847656 397.683594 470.976562 398.382812 C 471.101562 399.078125 471.160156 399.78125 471.152344 400.488281 C 471.144531 401.199219 471.070312 401.898438 470.929688 402.59375 C 470.789062 403.289062 470.582031 403.964844 470.316406 404.617188 C 470.046875 405.273438 469.71875 405.898438 469.332031 406.492188 C 468.941406 407.085938 468.503906 407.636719 468.011719 408.144531 C 464.386719 412.148438 460.554688 415.9375 456.511719 419.515625 C 454.5625 420.894531 452.464844 421.992188 450.222656 422.800781 C 449.0625 422.902344 447.910156 422.832031 446.769531 422.59375 C 445.628906 422.355469 444.546875 421.957031 443.523438 421.398438 C 442.5 420.839844 441.582031 420.148438 440.761719 419.316406 C 439.945312 418.488281 439.265625 417.554688 438.71875 416.523438 C 438.179688 415.625 437.789062 414.664062 437.550781 413.640625 C 437.3125 412.617188 437.234375 411.582031 437.320312 410.535156 C 437.40625 409.488281 437.652344 408.480469 438.054688 407.507812 C 438.457031 406.539062 438.996094 405.652344 439.675781 404.851562 C 443.777344 400.09375 448.199219 395.660156 452.945312 391.546875 C 453.484375 391.085938 454.0625 390.683594 454.683594 390.335938 C 455.304688 389.988281 455.949219 389.707031 456.625 389.488281 C 457.300781 389.269531 457.992188 389.117188 458.695312 389.035156 C 459.402344 388.953125 460.109375 388.941406 460.816406 388.996094 C 461.523438 389.054688 462.21875 389.179688 462.902344 389.371094 C 463.582031 389.566406 464.242188 389.824219 464.875 390.148438 C 465.503906 390.472656 466.097656 390.855469 466.65625 391.292969 C 467.210938 391.734375 467.71875 392.226562 468.179688 392.765625 Z M 394.65625 320.476562 C 394.171875 319.4375 393.554688 318.484375 392.804688 317.617188 C 392.054688 316.75 391.199219 316 390.242188 315.375 C 389.28125 314.746094 388.257812 314.261719 387.164062 313.917969 C 386.070312 313.574219 384.949219 313.390625 383.804688 313.359375 C 381.363281 314.191406 379.070312 315.324219 376.929688 316.761719 C 372.695312 320.5 368.695312 324.476562 364.933594 328.695312 C 364.429688 329.214844 363.980469 329.78125 363.589844 330.394531 C 363.199219 331.003906 362.871094 331.648438 362.609375 332.324219 C 362.347656 333 362.15625 333.695312 362.03125 334.410156 C 361.910156 335.125 361.859375 335.847656 361.878906 336.570312 C 361.898438 337.296875 361.992188 338.011719 362.15625 338.71875 C 362.320312 339.425781 362.554688 340.109375 362.855469 340.769531 C 363.15625 341.429688 363.519531 342.050781 363.945312 342.640625 C 364.371094 343.226562 364.851562 343.765625 365.382812 344.257812 C 365.882812 344.761719 366.425781 345.21875 367.011719 345.617188 C 367.597656 346.019531 368.214844 346.363281 368.867188 346.644531 C 369.519531 346.925781 370.191406 347.144531 370.886719 347.296875 C 371.578125 347.449219 372.28125 347.53125 372.992188 347.550781 C 373.703125 347.566406 374.40625 347.515625 375.105469 347.394531 C 375.808594 347.277344 376.488281 347.09375 377.152344 346.839844 C 377.820312 346.589844 378.453125 346.277344 379.058594 345.90625 C 379.660156 345.53125 380.226562 345.105469 380.746094 344.621094 C 385.03125 340.75 389.105469 336.667969 392.972656 332.378906 C 393.726562 331.605469 394.347656 330.734375 394.824219 329.761719 C 395.300781 328.792969 395.617188 327.769531 395.769531 326.699219 C 395.921875 325.628906 395.902344 324.558594 395.710938 323.492188 C 395.519531 322.429688 395.167969 321.417969 394.65625 320.464844 Z M 417.289062 341.980469 C 416.753906 341.492188 416.179688 341.058594 415.5625 340.679688 C 414.949219 340.296875 414.300781 339.980469 413.625 339.71875 C 412.949219 339.460938 412.257812 339.269531 411.542969 339.140625 C 410.832031 339.015625 410.113281 338.953125 409.390625 338.964844 C 408.667969 338.972656 407.949219 339.046875 407.242188 339.191406 C 406.53125 339.332031 405.84375 339.542969 405.171875 339.816406 C 404.503906 340.089844 403.863281 340.421875 403.257812 340.816406 C 402.652344 341.210938 402.085938 341.65625 401.5625 342.160156 C 397.574219 345.789062 393.792969 349.621094 390.214844 353.660156 C 388.898438 355.488281 387.859375 357.460938 387.101562 359.582031 C 386.964844 360.773438 387.007812 361.957031 387.238281 363.136719 C 387.46875 364.3125 387.867188 365.429688 388.441406 366.484375 C 389.015625 367.535156 389.734375 368.476562 390.601562 369.308594 C 391.464844 370.140625 392.4375 370.820312 393.511719 371.351562 C 394.488281 371.882812 395.523438 372.253906 396.617188 372.457031 C 397.710938 372.664062 398.808594 372.695312 399.910156 372.554688 C 401.015625 372.414062 402.066406 372.105469 403.074219 371.632812 C 404.078125 371.15625 404.988281 370.539062 405.796875 369.777344 C 409.980469 365.996094 414.015625 362.035156 417.808594 357.867188 C 418.328125 357.335938 418.792969 356.757812 419.195312 356.132812 C 419.597656 355.507812 419.9375 354.851562 420.207031 354.160156 C 420.476562 353.464844 420.671875 352.753906 420.796875 352.019531 C 420.921875 351.289062 420.972656 350.550781 420.949219 349.808594 C 420.925781 349.066406 420.828125 348.332031 420.652344 347.609375 C 420.480469 346.886719 420.238281 346.1875 419.921875 345.515625 C 419.605469 344.84375 419.226562 344.207031 418.785156 343.609375 C 418.339844 343.015625 417.839844 342.46875 417.289062 341.972656 Z M 446.152344 376.894531 C 445.707031 370.734375 443.75 367.039062 439.257812 365.019531 C 438.75 364.773438 438.222656 364.566406 437.679688 364.398438 C 437.136719 364.234375 436.582031 364.109375 436.019531 364.03125 C 435.457031 363.953125 434.894531 363.921875 434.324219 363.933594 C 433.757812 363.941406 433.195312 364 432.636719 364.097656 C 432.078125 364.199219 431.53125 364.34375 430.996094 364.527344 C 430.457031 364.714844 429.941406 364.945312 429.441406 365.210938 C 428.941406 365.480469 428.464844 365.789062 428.011719 366.132812 C 427.5625 366.476562 427.140625 366.851562 426.746094 367.261719 C 422.96875 370.746094 419.355469 374.433594 415.808594 378.144531 C 415.257812 378.664062 414.765625 379.230469 414.328125 379.847656 C 413.894531 380.464844 413.523438 381.121094 413.21875 381.8125 C 412.914062 382.503906 412.679688 383.21875 412.519531 383.957031 C 412.355469 384.695312 412.269531 385.441406 412.257812 386.199219 C 412.246094 386.953125 412.3125 387.703125 412.449219 388.445312 C 412.589844 389.191406 412.800781 389.910156 413.085938 390.613281 C 413.367188 391.3125 413.71875 391.980469 414.136719 392.609375 C 414.550781 393.238281 415.027344 393.820312 415.5625 394.355469 C 416.101562 394.890625 416.683594 395.363281 417.316406 395.78125 C 417.949219 396.195312 418.613281 396.546875 419.316406 396.828125 C 420.019531 397.113281 420.742188 397.324219 421.484375 397.464844 C 422.226562 397.605469 422.976562 397.671875 423.734375 397.664062 C 424.492188 397.65625 425.238281 397.570312 425.980469 397.414062 C 426.71875 397.257812 427.4375 397.027344 428.132812 396.730469 C 428.824219 396.429688 429.484375 396.066406 430.105469 395.632812 C 430.730469 395.203125 431.300781 394.714844 431.828125 394.171875 C 435.554688 390.804688 439.089844 387.242188 442.433594 383.492188 C 443.929688 381.433594 445.167969 379.230469 446.152344 376.882812 Z M 615.671875 214.035156 C 613.414062 210.765625 610.90625 207.699219 608.152344 204.835938 C 605.417969 201.890625 602.480469 199.171875 599.328125 196.679688 C 595.21875 193.503906 590.792969 190.847656 586.058594 188.714844 C 579.667969 185.722656 573.042969 183.414062 566.179688 181.785156 C 559.316406 180.152344 552.359375 179.238281 545.308594 179.035156 C 538.132812 179.214844 531.085938 180.234375 524.15625 182.101562 C 517.230469 183.964844 510.617188 186.621094 504.324219 190.070312 C 494.199219 196.074219 485.210938 203.46875 477.367188 212.25 C 465.503906 224.191406 453.46875 235.964844 441.632812 247.921875 C 441.234375 248.292969 440.855469 248.683594 440.503906 249.09375 C 440.148438 249.503906 439.816406 249.933594 439.507812 250.382812 C 439.199219 250.832031 438.917969 251.296875 438.664062 251.773438 C 438.40625 252.253906 438.179688 252.746094 437.976562 253.25 C 437.777344 253.757812 437.605469 254.269531 437.460938 254.796875 C 437.316406 255.320312 437.203125 255.851562 437.117188 256.386719 C 437.03125 256.921875 436.976562 257.464844 436.953125 258.007812 C 436.929688 258.550781 436.933594 259.089844 436.96875 259.632812 C 437.003906 260.175781 437.070312 260.714844 437.167969 261.25 C 437.261719 261.785156 437.386719 262.3125 437.539062 262.832031 C 437.695312 263.355469 437.878906 263.867188 438.089844 264.367188 C 438.300781 264.867188 438.539062 265.355469 438.804688 265.828125 C 439.070312 266.304688 439.359375 266.761719 439.675781 267.203125 C 439.992188 267.644531 440.332031 268.070312 440.695312 268.472656 C 441.058594 268.875 441.445312 269.257812 441.847656 269.621094 C 442.253906 269.980469 442.679688 270.320312 443.125 270.632812 C 443.808594 271.140625 444.53125 271.578125 445.292969 271.957031 C 446.058594 272.335938 446.847656 272.644531 447.664062 272.882812 C 448.480469 273.121094 449.3125 273.285156 450.15625 273.378906 C 451.003906 273.46875 451.851562 273.488281 452.699219 273.429688 C 453.546875 273.371094 454.386719 273.242188 455.210938 273.039062 C 456.035156 272.832031 456.839844 272.558594 457.617188 272.210938 C 458.394531 271.867188 459.132812 271.457031 459.839844 270.980469 C 460.542969 270.503906 461.203125 269.96875 461.8125 269.378906 C 467.347656 264.175781 495.277344 236.976562 503.300781 228.910156 C 545.414062 270.625 576.238281 301.425781 583.65625 309.03125 C 588.8125 314.316406 593.566406 319.261719 593.566406 319.261719 C 596.890625 322.75 600.265625 326.320312 603.800781 330.007812 C 606.195312 326.988281 608.855469 323.972656 611.445312 320.839844 C 614.054688 317.6875 616.484375 314.402344 618.734375 310.980469 C 622.550781 304.898438 625.605469 298.457031 627.90625 291.65625 C 630.207031 284.855469 631.6875 277.878906 632.347656 270.726562 C 632.589844 266.835938 632.558594 262.941406 632.257812 259.054688 C 631.960938 255.164062 631.394531 251.3125 630.558594 247.5 C 629.726562 243.691406 628.632812 239.957031 627.28125 236.296875 C 625.933594 232.636719 624.335938 229.085938 622.492188 225.648438 C 620.472656 221.628906 618.199219 217.757812 615.671875 214.035156 Z M 503.28125 246.796875 C 491.640625 258.117188 473.597656 275.800781 469.097656 279.753906 C 468.449219 280.289062 467.78125 280.796875 467.089844 281.273438 C 466.394531 281.746094 465.683594 282.191406 464.949219 282.601562 C 464.214844 283.011719 463.464844 283.386719 462.699219 283.730469 C 461.929688 284.070312 461.148438 284.375 460.351562 284.644531 C 459.558594 284.914062 458.75 285.148438 457.933594 285.34375 C 457.117188 285.539062 456.292969 285.695312 455.460938 285.816406 C 454.628906 285.933594 453.792969 286.015625 452.953125 286.058594 C 452.117188 286.101562 451.277344 286.109375 450.4375 286.074219 C 449.597656 286.039062 448.761719 285.96875 447.929688 285.855469 C 447.09375 285.746094 446.269531 285.597656 445.449219 285.410156 C 444.632812 285.222656 443.820312 285 443.023438 284.738281 C 442.226562 284.476562 441.441406 284.179688 440.667969 283.847656 C 439.898438 283.515625 439.144531 283.148438 438.40625 282.746094 C 437.667969 282.34375 436.949219 281.90625 436.253906 281.441406 C 435.554688 280.972656 434.878906 280.472656 434.226562 279.941406 C 433.578125 279.414062 432.949219 278.851562 432.351562 278.265625 C 431.746094 277.679688 431.175781 277.066406 430.628906 276.425781 C 430.085938 275.785156 429.570312 275.121094 429.089844 274.433594 C 428.605469 273.746094 428.15625 273.035156 427.738281 272.308594 C 427.320312 271.578125 426.9375 270.828125 426.589844 270.066406 C 426.242188 269.300781 425.933594 268.519531 425.65625 267.726562 C 425.382812 266.929688 425.144531 266.125 424.945312 265.308594 C 424.746094 264.492188 424.582031 263.667969 424.457031 262.839844 C 424.335938 262.007812 424.25 261.171875 424.203125 260.332031 C 424.160156 259.492188 424.152344 258.652344 424.183594 257.8125 C 424.21875 256.972656 424.289062 256.136719 424.398438 255.304688 C 424.507812 254.46875 424.65625 253.644531 424.84375 252.824219 C 425.03125 252.003906 425.253906 251.195312 425.515625 250.398438 C 425.78125 249.597656 426.078125 248.8125 426.414062 248.042969 C 426.75 247.273438 427.117188 246.519531 427.523438 245.78125 C 427.929688 245.046875 428.367188 244.332031 428.839844 243.636719 C 429.3125 242.9375 429.816406 242.265625 430.347656 241.617188 C 433.898438 237.398438 437.933594 233.585938 441.851562 229.667969 C 451.578125 219.898438 461.371094 210.15625 471.371094 200.179688 C 468.644531 197.730469 465.773438 195.464844 462.746094 193.394531 C 459.722656 191.320312 456.574219 189.457031 453.304688 187.800781 C 450.035156 186.144531 446.667969 184.710938 443.207031 183.5 C 439.75 182.289062 436.222656 181.3125 432.632812 180.566406 C 429.042969 179.824219 425.421875 179.316406 421.765625 179.050781 C 418.109375 178.785156 414.449219 178.761719 410.789062 178.980469 C 407.128906 179.199219 403.5 179.65625 399.902344 180.355469 C 396.304688 181.054688 392.765625 181.984375 389.289062 183.152344 C 354.25 195.058594 333.929688 220.082031 329.800781 256.949219 C 329.449219 259.902344 329.257812 262.867188 329.234375 265.84375 C 329.207031 268.820312 329.34375 271.789062 329.644531 274.75 C 329.945312 277.710938 330.410156 280.648438 331.03125 283.558594 C 331.65625 286.46875 332.4375 289.335938 333.378906 292.160156 C 334.316406 294.984375 335.410156 297.75 336.652344 300.453125 C 337.894531 303.15625 339.285156 305.785156 340.816406 308.335938 C 342.347656 310.886719 344.015625 313.347656 345.820312 315.714844 C 347.625 318.082031 349.550781 320.34375 351.605469 322.5 C 357.296875 317.300781 362.523438 312.398438 367.863281 307.65625 C 368.550781 306.996094 369.277344 306.382812 370.039062 305.8125 C 370.800781 305.242188 371.59375 304.71875 372.421875 304.246094 C 373.246094 303.769531 374.097656 303.34375 374.972656 302.972656 C 375.847656 302.597656 376.746094 302.277344 377.660156 302.011719 C 378.574219 301.746094 379.5 301.535156 380.441406 301.378906 C 381.378906 301.222656 382.324219 301.125 383.277344 301.082031 C 384.226562 301.042969 385.179688 301.058594 386.128906 301.128906 C 387.078125 301.199219 388.019531 301.328125 388.953125 301.515625 C 389.890625 301.699219 390.808594 301.9375 391.714844 302.234375 C 392.621094 302.527344 393.503906 302.878906 394.367188 303.277344 C 395.230469 303.679688 396.070312 304.128906 396.878906 304.632812 C 397.6875 305.132812 398.464844 305.679688 399.210938 306.277344 C 399.953125 306.871094 400.660156 307.507812 401.328125 308.1875 C 401.996094 308.863281 402.621094 309.582031 403.203125 310.335938 C 403.785156 311.089844 404.320312 311.875 404.808594 312.691406 C 405.296875 313.511719 405.730469 314.355469 406.117188 315.226562 C 407.457031 318.71875 408.480469 322.300781 409.195312 325.96875 C 424.3125 327.296875 432.546875 335.757812 433.898438 350.992188 C 449.398438 352.398438 457.765625 360.777344 459.011719 375.972656 C 459.449219 376.117188 459.898438 376.222656 460.355469 376.289062 C 461.273438 376.3125 462.191406 376.390625 463.101562 376.519531 C 464.011719 376.652344 464.914062 376.832031 465.804688 377.0625 C 466.695312 377.296875 467.570312 377.578125 468.425781 377.910156 C 469.285156 378.242188 470.121094 378.625 470.9375 379.050781 C 471.753906 379.476562 472.539062 379.949219 473.300781 380.46875 C 474.0625 380.984375 474.792969 381.542969 475.488281 382.144531 C 476.1875 382.742188 476.847656 383.382812 477.472656 384.058594 C 478.097656 384.734375 478.683594 385.441406 479.226562 386.183594 C 479.769531 386.925781 480.273438 387.699219 480.726562 388.496094 C 481.183594 389.296875 481.59375 390.117188 481.957031 390.964844 C 482.320312 391.808594 482.632812 392.675781 482.898438 393.554688 C 483.160156 394.4375 483.375 395.332031 483.535156 396.238281 C 483.699219 397.144531 483.808594 398.054688 483.867188 398.972656 C 483.925781 399.890625 483.933594 400.8125 483.886719 401.730469 C 483.839844 402.648438 483.742188 403.5625 483.589844 404.46875 C 483.441406 405.378906 483.238281 406.273438 482.988281 407.160156 C 482.875 407.6875 482.875 408.214844 482.992188 408.738281 C 483.109375 409.265625 483.332031 409.742188 483.660156 410.171875 C 488.132812 414.753906 492.59375 419.375 497.386719 423.613281 C 497.871094 423.996094 498.378906 424.335938 498.917969 424.628906 C 499.460938 424.921875 500.019531 425.171875 500.601562 425.371094 C 501.183594 425.570312 501.777344 425.71875 502.382812 425.816406 C 502.988281 425.914062 503.601562 425.960938 504.214844 425.953125 C 504.828125 425.945312 505.4375 425.890625 506.042969 425.777344 C 506.648438 425.667969 507.238281 425.507812 507.816406 425.296875 C 508.394531 425.085938 508.949219 424.828125 509.480469 424.523438 C 510.015625 424.21875 510.519531 423.871094 510.992188 423.480469 C 511.332031 423.21875 511.652344 422.941406 511.957031 422.648438 C 512.265625 422.351562 512.554688 422.039062 512.824219 421.714844 C 513.097656 421.386719 513.347656 421.042969 513.582031 420.6875 C 513.816406 420.332031 514.027344 419.964844 514.21875 419.582031 C 514.410156 419.203125 514.578125 418.8125 514.726562 418.414062 C 514.875 418.015625 515 417.609375 515.101562 417.195312 C 515.203125 416.78125 515.28125 416.367188 515.339844 415.941406 C 515.394531 415.519531 515.425781 415.097656 515.433594 414.671875 C 515.441406 414.246094 515.421875 413.820312 515.382812 413.398438 C 515.34375 412.976562 515.277344 412.554688 515.191406 412.136719 C 515.105469 411.722656 514.992188 411.3125 514.859375 410.90625 C 514.726562 410.503906 514.570312 410.109375 514.390625 409.722656 C 514.214844 409.335938 514.015625 408.960938 513.792969 408.59375 C 513.574219 408.230469 513.335938 407.878906 513.074219 407.542969 C 512.816406 407.207031 512.535156 406.886719 512.242188 406.578125 C 511.945312 406.273438 511.632812 405.984375 511.304688 405.714844 C 500.027344 394.425781 488.691406 383.195312 477.421875 371.902344 C 476.921875 371.394531 476.46875 370.847656 476.070312 370.257812 L 456.460938 350.648438 C 456.183594 350.359375 455.933594 350.050781 455.71875 349.714844 C 455.5 349.378906 455.320312 349.023438 455.171875 348.652344 C 455.023438 348.28125 454.910156 347.898438 454.835938 347.503906 C 454.761719 347.113281 454.726562 346.714844 454.730469 346.316406 C 454.734375 345.914062 454.777344 345.519531 454.859375 345.128906 C 454.9375 344.734375 455.054688 344.355469 455.210938 343.984375 C 455.367188 343.617188 455.554688 343.265625 455.777344 342.933594 C 456 342.601562 456.253906 342.292969 456.535156 342.011719 C 456.820312 341.730469 457.125 341.476562 457.457031 341.253906 C 457.789062 341.03125 458.140625 340.839844 458.511719 340.6875 C 458.878906 340.53125 459.257812 340.414062 459.652344 340.332031 C 460.042969 340.253906 460.4375 340.210938 460.839844 340.207031 C 461.238281 340.203125 461.636719 340.238281 462.027344 340.3125 C 462.421875 340.386719 462.804688 340.496094 463.175781 340.644531 C 463.546875 340.792969 463.902344 340.976562 464.238281 341.195312 C 464.574219 341.410156 464.886719 341.660156 465.171875 341.9375 L 484.890625 361.652344 C 485.421875 362.027344 485.925781 362.4375 486.398438 362.886719 C 489.945312 366.257812 493.515625 369.613281 497 373.050781 C 505.132812 381.089844 513.140625 389.25 521.359375 397.199219 C 521.910156 397.765625 522.511719 398.269531 523.167969 398.710938 C 523.824219 399.148438 524.515625 399.515625 525.25 399.8125 C 525.980469 400.105469 526.738281 400.320312 527.515625 400.457031 C 528.292969 400.589844 529.074219 400.644531 529.863281 400.617188 C 530.652344 400.585938 531.429688 400.476562 532.195312 400.285156 C 532.960938 400.09375 533.699219 399.824219 534.410156 399.476562 C 535.117188 399.132812 535.78125 398.714844 536.40625 398.226562 C 537.027344 397.742188 537.589844 397.195312 538.097656 396.589844 C 538.566406 396.015625 538.972656 395.40625 539.324219 394.753906 C 539.675781 394.101562 539.960938 393.421875 540.179688 392.714844 C 540.398438 392.007812 540.550781 391.285156 540.632812 390.550781 C 540.714844 389.816406 540.726562 389.078125 540.667969 388.34375 C 540.609375 387.605469 540.480469 386.878906 540.28125 386.164062 C 540.085938 385.453125 539.820312 384.765625 539.492188 384.101562 C 539.160156 383.4375 538.773438 382.8125 538.324219 382.226562 C 537.875 381.636719 537.375 381.097656 536.820312 380.605469 C 525.320312 369.027344 513.703125 357.523438 502.140625 345.976562 C 496.628906 340.472656 491.050781 335.039062 485.683594 329.390625 C 485.378906 329.113281 485.105469 328.808594 484.867188 328.472656 C 484.625 328.136719 484.421875 327.78125 484.257812 327.40625 C 484.089844 327.027344 483.960938 326.640625 483.875 326.238281 C 483.789062 325.835938 483.742188 325.425781 483.742188 325.015625 C 483.738281 324.605469 483.777344 324.195312 483.855469 323.792969 C 483.9375 323.386719 484.058594 322.996094 484.21875 322.617188 C 484.382812 322.238281 484.578125 321.878906 484.816406 321.542969 C 485.050781 321.203125 485.316406 320.894531 485.617188 320.609375 C 485.90625 320.320312 486.222656 320.058594 486.5625 319.828125 C 486.902344 319.601562 487.261719 319.40625 487.640625 319.246094 C 488.015625 319.085938 488.40625 318.960938 488.808594 318.875 C 489.210938 318.792969 489.617188 318.746094 490.027344 318.738281 C 490.4375 318.730469 490.84375 318.765625 491.25 318.835938 C 491.652344 318.910156 492.046875 319.019531 492.429688 319.167969 C 492.8125 319.316406 493.179688 319.5 493.527344 319.71875 C 493.875 319.9375 494.199219 320.183594 494.496094 320.464844 C 495.265625 321.105469 495.996094 321.792969 496.683594 322.519531 C 513.066406 338.832031 529.40625 355.183594 545.882812 371.398438 C 547.679688 373.171875 549.792969 374.40625 552.222656 375.097656 C 552.804688 375.246094 553.394531 375.34375 553.992188 375.394531 C 554.589844 375.445312 555.1875 375.445312 555.785156 375.398438 C 556.382812 375.351562 556.972656 375.253906 557.554688 375.109375 C 558.136719 374.964844 558.703125 374.769531 559.253906 374.53125 C 559.804688 374.292969 560.332031 374.011719 560.835938 373.683594 C 561.339844 373.359375 561.8125 372.996094 562.257812 372.589844 C 562.699219 372.1875 563.105469 371.75 563.476562 371.277344 C 563.851562 370.804688 564.179688 370.308594 564.46875 369.78125 C 564.773438 369.246094 565.03125 368.691406 565.242188 368.117188 C 565.457031 367.539062 565.621094 366.953125 565.734375 366.347656 C 565.851562 365.746094 565.917969 365.136719 565.9375 364.523438 C 565.953125 363.910156 565.917969 363.300781 565.835938 362.691406 C 565.753906 362.082031 565.621094 361.484375 565.441406 360.898438 C 565.257812 360.3125 565.03125 359.742188 564.757812 359.195312 C 564.484375 358.644531 564.167969 358.121094 563.808594 357.621094 C 563.449219 357.125 563.050781 356.660156 562.617188 356.226562 C 550.0625 343.554688 537.402344 330.980469 524.78125 318.375 C 520.261719 313.859375 515.632812 309.40625 511.191406 304.792969 C 510.863281 304.511719 510.570312 304.207031 510.308594 303.867188 C 510.042969 303.53125 509.816406 303.167969 509.625 302.785156 C 509.433594 302.402344 509.285156 302.003906 509.171875 301.589844 C 509.0625 301.179688 508.992188 300.757812 508.96875 300.332031 C 508.941406 299.902344 508.957031 299.476562 509.015625 299.054688 C 509.074219 298.628906 509.175781 298.214844 509.316406 297.8125 C 509.460938 297.40625 509.640625 297.023438 509.859375 296.652344 C 510.082031 296.285156 510.335938 295.945312 510.621094 295.628906 C 510.9375 295.316406 511.277344 295.039062 511.644531 294.792969 C 512.011719 294.546875 512.402344 294.34375 512.8125 294.175781 C 513.21875 294.007812 513.640625 293.882812 514.074219 293.800781 C 514.511719 293.71875 514.949219 293.679688 515.390625 293.683594 C 515.832031 293.6875 516.269531 293.734375 516.703125 293.824219 C 517.132812 293.917969 517.554688 294.050781 517.960938 294.226562 C 518.367188 294.398438 518.75 294.613281 519.113281 294.863281 C 519.476562 295.117188 519.8125 295.402344 520.121094 295.71875 C 520.6875 296.207031 521.179688 296.789062 521.714844 297.320312 C 537.988281 313.554688 554.277344 329.78125 570.582031 346 C 571.363281 346.90625 572.261719 347.683594 573.269531 348.332031 C 574.277344 348.976562 575.355469 349.46875 576.507812 349.804688 C 577.660156 350.140625 578.832031 350.308594 580.03125 350.304688 C 581.230469 350.300781 582.402344 350.125 583.550781 349.78125 L 583.871094 349.671875 C 584.332031 349.484375 584.777344 349.269531 585.207031 349.027344 C 585.636719 348.785156 586.050781 348.515625 586.445312 348.21875 C 586.84375 347.921875 587.21875 347.601562 587.574219 347.257812 C 587.925781 346.910156 588.257812 346.546875 588.566406 346.15625 C 588.871094 345.769531 589.152344 345.363281 589.40625 344.941406 C 589.660156 344.515625 589.886719 344.078125 590.085938 343.625 C 590.28125 343.167969 590.449219 342.707031 590.589844 342.230469 C 590.726562 341.753906 590.832031 341.273438 590.90625 340.785156 C 590.984375 340.296875 591.027344 339.804688 591.039062 339.308594 C 591.050781 338.816406 591.027344 338.320312 590.976562 337.828125 C 590.925781 337.335938 590.839844 336.851562 590.726562 336.371094 C 590.609375 335.890625 590.464844 335.417969 590.289062 334.957031 C 590.113281 334.492188 589.90625 334.042969 589.671875 333.609375 C 589.4375 333.171875 589.179688 332.753906 588.890625 332.351562 C 588.601562 331.949219 588.289062 331.570312 587.949219 331.207031 C 587.613281 330.847656 587.253906 330.507812 586.871094 330.191406 C 568.4375 311.746094 526.824219 270.203125 503.28125 246.796875 Z M 503.28125 246.796875 " fill-opacity="1" fill-rule="nonzero"/></svg>