<svg xmlns="http://www.w3.org/2000/svg" xmlns:xlink="http://www.w3.org/1999/xlink" width="1280" zoomAndPan="magnify" viewBox="0 0 960 599.999999" height="800" preserveAspectRatio="xMidYMid meet" version="1.0"><path fill="#ffe81c" d="M 501.328125 187.300781 C 494.148438 186.613281 486.898438 185.507812 479.71875 185.367188 C 460.945312 184.886719 442.582031 188.476562 424.082031 191.304688 C 417.453125 192.339844 414.277344 195.242188 411.308594 200.96875 C 401.09375 220.574219 389.980469 239.699219 379.210938 258.957031 C 378.519531 260.269531 377.621094 261.925781 377.828125 263.238281 C 378.863281 269.3125 380.3125 275.25 381.695312 281.808594 C 383.488281 280.425781 384.871094 279.390625 386.25 278.425781 C 393.984375 272.695312 403.578125 273.867188 408.410156 281.1875 C 411.929688 286.433594 411.515625 292.367188 407.238281 296.992188 C 398.332031 306.660156 389.355469 316.324219 380.3125 325.917969 C 375.964844 330.542969 368.578125 331.371094 362.917969 328.058594 C 357.601562 324.953125 355.117188 318.808594 357.050781 312.527344 C 357.878906 309.832031 359.257812 307.210938 360.984375 304.933594 C 364.160156 300.722656 367.820312 296.855469 371.132812 292.714844 C 371.960938 291.679688 372.582031 289.882812 372.375 288.640625 C 371.546875 284.085938 370.375 279.597656 369.199219 275.109375 C 368.992188 274.28125 368.164062 273.246094 367.335938 272.902344 C 364.230469 271.660156 360.777344 270.96875 357.878906 269.382812 C 351.664062 266 345.730469 262.132812 339.652344 258.472656 C 337.929688 257.4375 336.203125 256.542969 334.339844 255.78125 C 329.644531 253.847656 328.402344 251.777344 330.265625 247.082031 C 332.40625 241.769531 334.820312 236.523438 337.375 231.414062 C 347.660156 210.703125 359.050781 190.617188 371.890625 171.355469 C 374.03125 168.179688 376.515625 165.144531 379.210938 162.3125 C 383.488281 157.757812 387.078125 157.273438 392.050781 161.140625 C 398.746094 166.316406 405.234375 171.90625 411.449219 177.707031 C 414.484375 180.535156 417.039062 181.847656 421.59375 180.949219 C 439.683594 177.292969 457.976562 174.324219 476.476562 174.253906 C 492.007812 174.1875 507.402344 175.84375 521.070312 184.609375 C 524.453125 186.820312 527.90625 185.367188 530.320312 182.261719 C 537.84375 172.597656 545.4375 162.933594 553.378906 153.546875 C 556.554688 149.75 559.3125 149.886719 563.109375 153.132812 C 584.925781 171.90625 606.671875 190.683594 628.414062 209.460938 C 631.453125 212.085938 631.589844 214.914062 628.691406 218.089844 C 623.03125 224.304688 617.300781 230.515625 611.503906 236.589844 C 608.742188 239.488281 606.464844 242.113281 605.773438 246.53125 C 604.183594 257.164062 601.148438 267.449219 593.96875 276.285156 C 596.039062 277.941406 597.628906 279.667969 599.558594 280.839844 C 607.429688 285.742188 608.601562 293.058594 606.671875 301.136719 C 603.976562 312.457031 596.796875 319.707031 585.546875 322.671875 C 583.476562 323.226562 582.785156 324.125 582.441406 326.402344 C 580.578125 339.101562 575.46875 349.804688 563.042969 355.601562 C 561.9375 356.085938 561.179688 358.085938 561.039062 359.46875 C 560.488281 366.300781 558.96875 372.792969 554.414062 378.246094 C 550.476562 382.9375 545.371094 385.839844 539.226562 386.113281 C 536.257812 386.253906 535.359375 387.496094 534.667969 390.050781 C 531.632812 401.507812 519 411.3125 507.195312 410.757812 C 503.328125 410.550781 499.050781 408.964844 495.875 406.753906 C 483.378906 397.988281 471.296875 388.738281 459.011719 379.625 C 458.734375 379.417969 458.457031 379.28125 457.835938 378.933594 C 455.421875 381.558594 453.074219 384.320312 450.519531 386.875 C 443.339844 394.121094 431.949219 392.1875 427.53125 383.007812 C 425.460938 378.726562 425.53125 374.585938 428.980469 370.71875 C 437.542969 360.988281 446.171875 351.320312 454.246094 341.242188 C 459.425781 334.824219 468.261719 335.582031 472.679688 338.964844 C 478.339844 343.246094 480.132812 351.738281 476.0625 357.671875 C 473.714844 361.125 470.609375 364.023438 467.847656 367.199219 C 467.019531 368.164062 466.121094 369.132812 465.015625 370.375 C 468.605469 373.207031 471.851562 375.964844 475.300781 378.519531 C 484.34375 385.078125 493.457031 391.5 502.570312 398.058594 C 505.46875 400.128906 508.4375 400.402344 511.683594 399.09375 C 517.757812 396.746094 522.867188 393.363281 524.867188 386.597656 C 525.417969 384.59375 525.144531 383.144531 523.625 381.902344 C 512.027344 372.515625 500.429688 363.195312 488.761719 353.875 C 486.277344 351.945312 483.722656 350.21875 484 346.488281 C 484.277344 343.3125 486.347656 341.382812 489.386719 342.277344 C 492.078125 343.039062 494.839844 344.28125 497.046875 346.007812 C 506.917969 353.875 516.582031 361.953125 526.316406 369.960938 C 527.285156 370.71875 528.113281 371.546875 529.078125 372.308594 C 536.535156 378.246094 546.613281 374.863281 549.097656 365.613281 C 549.304688 364.785156 549.511719 363.886719 549.648438 363.058594 C 550.824219 357.742188 550.0625 353.53125 545.09375 349.871094 C 534.117188 341.796875 523.625 333.167969 513.0625 324.605469 C 511.542969 323.363281 509.816406 321.84375 509.335938 320.121094 C 508.851562 318.394531 509.128906 315.632812 510.300781 314.457031 C 511.40625 313.355469 514.027344 313.355469 515.960938 313.421875 C 517.136719 313.492188 518.242188 314.667969 519.277344 315.496094 C 530.320312 324.332031 541.367188 333.234375 552.410156 342.070312 C 558.070312 346.628906 560.417969 346.421875 565.042969 340.761719 C 568.910156 336.066406 571.738281 330.820312 571.808594 324.605469 C 571.808594 322.949219 570.910156 320.878906 569.667969 319.773438 C 560.003906 311.492188 550.203125 303.414062 540.539062 295.128906 C 538.605469 293.542969 536.878906 291.609375 535.5 289.539062 C 534.117188 287.535156 534.460938 284.914062 536.464844 283.601562 C 537.984375 282.636719 540.539062 282.082031 542.195312 282.703125 C 544.609375 283.601562 546.679688 285.464844 548.683594 287.191406 C 557.519531 294.714844 566.355469 302.308594 574.984375 310.039062 C 578.160156 312.871094 581.335938 313.699219 584.855469 311.492188 C 587.824219 309.625 591 307.761719 593.140625 305.140625 C 598.316406 298.925781 597.488281 293.128906 591.484375 287.882812 C 567.183594 266.550781 542.953125 245.21875 518.585938 224.097656 C 517.136719 222.851562 514.582031 222.09375 512.648438 222.371094 C 502.019531 223.75 491.386719 225.269531 480.894531 227.132812 C 477.511719 227.753906 474.265625 229.480469 470.953125 230.792969 C 461.082031 234.796875 452.039062 233 443.753906 226.925781 C 438.164062 222.851562 437.542969 217.398438 442.511719 212.5 C 447.136719 207.941406 452.796875 204.421875 457.492188 199.933594 C 463.773438 193.929688 471.296875 191.71875 479.71875 191.097656 C 486.96875 190.546875 494.148438 189.234375 501.394531 188.269531 C 501.328125 188.0625 501.328125 187.714844 501.328125 187.300781 Z M 386.871094 169.90625 C 368.507812 194.414062 355.046875 220.714844 341.863281 247.289062 C 350.078125 252.054688 357.742188 256.542969 365.679688 261.167969 C 377.96875 238.800781 390.046875 216.847656 402.058594 194.894531 C 403.300781 192.617188 405.855469 189.996094 405.441406 187.992188 C 405.027344 185.785156 401.921875 184.058594 399.917969 182.195312 C 395.914062 178.257812 391.703125 174.394531 386.871094 169.90625 Z M 617.4375 214.15625 C 615.09375 212.222656 613.019531 210.566406 611.089844 208.839844 C 602.527344 201.175781 594.105469 193.375 585.339844 185.851562 C 577.402344 179.019531 569.117188 172.460938 560.972656 165.902344 C 560.210938 165.28125 558.210938 165.003906 557.796875 165.417969 C 552.273438 171.839844 546.886719 178.398438 541.296875 185.09375 C 560.832031 201.246094 580.160156 217.261719 599.699219 233.414062 C 605.703125 226.996094 611.503906 220.714844 617.4375 214.15625 Z M 617.4375 214.15625 " fill-opacity="1" fill-rule="nonzero"/><path fill="#ffe81c" d="M 442.996094 317.496094 C 450.242188 317.496094 456.179688 322.742188 456.320312 329.785156 C 456.386719 332.0625 455.488281 334.890625 454.039062 336.6875 C 443.824219 348.90625 433.398438 360.917969 423.046875 373 C 417.109375 379.902344 409.789062 381.074219 403.578125 376.242188 C 397.019531 371.066406 395.914062 362.296875 401.574219 355.394531 C 408.824219 346.628906 416.554688 338.273438 424.082031 329.714844 C 426.152344 327.367188 428.152344 325.019531 430.292969 322.8125 C 434.226562 318.808594 437.472656 317.496094 442.996094 317.496094 Z M 442.996094 317.496094 " fill-opacity="1" fill-rule="nonzero"/><path fill="#ffe81c" d="M 391.359375 357.535156 C 380.105469 356.777344 373.480469 345.386719 379.140625 335.375 C 382.386719 329.578125 386.941406 324.398438 391.359375 319.359375 C 397.019531 312.871094 403.027344 306.660156 408.960938 300.375 C 412.898438 296.234375 420.492188 295.0625 425.53125 297.753906 C 430.707031 300.515625 433.8125 307.28125 432.226562 313.007812 C 431.8125 314.460938 430.984375 315.839844 429.949219 317.011719 C 418.972656 329.578125 407.996094 342.140625 396.882812 354.566406 C 395.5 356.015625 393.222656 356.570312 391.359375 357.535156 Z M 391.359375 357.535156 " fill-opacity="1" fill-rule="nonzero"/></svg>