<svg xmlns="http://www.w3.org/2000/svg" xmlns:xlink="http://www.w3.org/1999/xlink" width="1280" zoomAndPan="magnify" viewBox="0 0 960 599.999999" height="800" preserveAspectRatio="xMidYMid meet" version="1.0"><defs><clipPath id="42279fe79d"><path d="M 571 270 L 631.390625 270 L 631.390625 403 L 571 403 Z M 571 270 " clip-rule="nonzero"/></clipPath><clipPath id="e64288101e"><path d="M 328.390625 270 L 389 270 L 389 403 L 328.390625 403 Z M 328.390625 270 " clip-rule="nonzero"/></clipPath><clipPath id="972bea594a"><path d="M 449 350 L 511 350 L 511 482.992188 L 449 482.992188 Z M 449 350 " clip-rule="nonzero"/></clipPath><clipPath id="2cae5b8b59"><path d="M 467 165.742188 L 493 165.742188 L 493 193 L 467 193 Z M 467 165.742188 " clip-rule="nonzero"/></clipPath></defs><path fill="#ffe81c" d="M 556.710938 320.449219 C 556.710938 321.3125 556.628906 322.167969 556.460938 323.015625 C 556.289062 323.863281 556.042969 324.6875 555.710938 325.484375 C 555.378906 326.28125 554.976562 327.039062 554.496094 327.757812 C 554.015625 328.476562 553.46875 329.140625 552.859375 329.753906 C 552.246094 330.363281 551.582031 330.910156 550.863281 331.390625 C 550.144531 331.867188 549.386719 332.273438 548.589844 332.605469 C 547.792969 332.933594 546.96875 333.183594 546.121094 333.351562 C 545.273438 333.523438 544.417969 333.605469 543.554688 333.605469 C 542.691406 333.605469 541.835938 333.523438 540.988281 333.351562 C 540.140625 333.183594 539.316406 332.933594 538.519531 332.605469 C 537.722656 332.273438 536.964844 331.867188 536.246094 331.390625 C 535.527344 330.910156 534.863281 330.363281 534.25 329.753906 C 533.640625 329.140625 533.09375 328.476562 532.613281 327.757812 C 532.136719 327.039062 531.730469 326.28125 531.398438 325.484375 C 531.070312 324.6875 530.820312 323.863281 530.648438 323.015625 C 530.480469 322.167969 530.398438 321.3125 530.398438 320.449219 C 530.398438 319.585938 530.480469 318.730469 530.648438 317.882812 C 530.820312 317.035156 531.070312 316.210938 531.398438 315.414062 C 531.730469 314.617188 532.136719 313.855469 532.613281 313.140625 C 533.09375 312.421875 533.640625 311.757812 534.25 311.144531 C 534.863281 310.535156 535.527344 309.988281 536.246094 309.507812 C 536.964844 309.027344 537.722656 308.625 538.519531 308.292969 C 539.316406 307.960938 540.140625 307.710938 540.988281 307.542969 C 541.835938 307.375 542.691406 307.292969 543.554688 307.292969 C 544.417969 307.292969 545.273438 307.375 546.121094 307.542969 C 546.96875 307.710938 547.792969 307.960938 548.589844 308.292969 C 549.386719 308.625 550.148438 309.027344 550.863281 309.507812 C 551.582031 309.988281 552.246094 310.535156 552.859375 311.144531 C 553.46875 311.757812 554.015625 312.421875 554.496094 313.140625 C 554.976562 313.855469 555.378906 314.617188 555.710938 315.414062 C 556.042969 316.210938 556.289062 317.035156 556.460938 317.882812 C 556.628906 318.730469 556.710938 319.585938 556.710938 320.449219 Z M 556.710938 320.449219 " fill-opacity="1" fill-rule="nonzero"/><path fill="#ffe81c" d="M 528 461.15625 C 528 465.226562 531.308594 468.527344 535.375 468.527344 C 539.449219 468.527344 542.75 465.226562 542.75 461.15625 L 542.757812 399.285156 L 546.042969 399.285156 L 546.019531 461.15625 C 546.019531 465.226562 549.324219 468.527344 553.394531 468.527344 C 557.464844 468.527344 560.765625 465.226562 560.765625 461.15625 L 560.800781 354.488281 L 564.03125 354.488281 L 564.03125 393.796875 C 564.03125 401.703125 574.351562 401.703125 574.328125 393.796875 L 574.328125 353.644531 C 574.328125 344.90625 569.195312 336.347656 558.972656 336.347656 L 529.488281 336.332031 C 520.171875 336.332031 514.335938 343.929688 514.335938 353.402344 L 514.335938 393.792969 C 514.335938 401.644531 524.710938 401.644531 524.710938 393.792969 L 524.710938 354.488281 L 528.011719 354.488281 Z M 528 461.15625 " fill-opacity="1" fill-rule="nonzero"/><path fill="#ffe81c" d="M 613.519531 254.183594 C 613.519531 255.046875 613.433594 255.902344 613.265625 256.75 C 613.097656 257.597656 612.847656 258.417969 612.515625 259.21875 C 612.1875 260.015625 611.78125 260.773438 611.300781 261.492188 C 610.820312 262.210938 610.273438 262.875 609.664062 263.488281 C 609.054688 264.097656 608.390625 264.644531 607.671875 265.121094 C 606.953125 265.601562 606.195312 266.007812 605.394531 266.339844 C 604.597656 266.667969 603.773438 266.917969 602.925781 267.085938 C 602.082031 267.257812 601.226562 267.339844 600.359375 267.339844 C 599.496094 267.339844 598.640625 267.257812 597.792969 267.085938 C 596.945312 266.917969 596.125 266.667969 595.324219 266.339844 C 594.527344 266.007812 593.769531 265.601562 593.050781 265.121094 C 592.332031 264.644531 591.667969 264.097656 591.058594 263.488281 C 590.445312 262.875 589.902344 262.210938 589.421875 261.492188 C 588.941406 260.773438 588.535156 260.015625 588.203125 259.21875 C 587.875 258.417969 587.625 257.597656 587.457031 256.75 C 587.289062 255.902344 587.203125 255.046875 587.203125 254.183594 C 587.203125 253.320312 587.289062 252.464844 587.457031 251.617188 C 587.625 250.769531 587.875 249.945312 588.203125 249.148438 C 588.535156 248.347656 588.941406 247.589844 589.421875 246.871094 C 589.902344 246.15625 590.445312 245.488281 591.058594 244.878906 C 591.667969 244.269531 592.332031 243.722656 593.050781 243.242188 C 593.769531 242.761719 594.527344 242.359375 595.324219 242.027344 C 596.125 241.695312 596.945312 241.445312 597.792969 241.277344 C 598.640625 241.109375 599.496094 241.027344 600.359375 241.027344 C 601.226562 241.027344 602.082031 241.109375 602.925781 241.277344 C 603.773438 241.445312 604.597656 241.695312 605.394531 242.027344 C 606.195312 242.359375 606.953125 242.761719 607.671875 243.242188 C 608.390625 243.722656 609.054688 244.269531 609.664062 244.878906 C 610.273438 245.488281 610.820312 246.15625 611.300781 246.871094 C 611.78125 247.589844 612.1875 248.347656 612.515625 249.148438 C 612.847656 249.945312 613.097656 250.769531 613.265625 251.617188 C 613.433594 252.464844 613.519531 253.320312 613.519531 254.183594 Z M 613.519531 254.183594 " fill-opacity="1" fill-rule="nonzero"/><g clip-path="url(#42279fe79d)"><path fill="#ffe81c" d="M 584.804688 394.890625 C 584.804688 398.960938 588.113281 402.261719 592.179688 402.261719 C 596.257812 402.261719 599.558594 398.960938 599.558594 394.890625 L 599.5625 333.019531 L 602.847656 333.019531 L 602.828125 394.890625 C 602.828125 398.960938 606.128906 402.261719 610.199219 402.261719 C 614.269531 402.261719 617.570312 398.960938 617.570312 394.890625 L 617.605469 288.21875 L 620.835938 288.21875 L 620.835938 327.53125 C 620.835938 335.4375 631.15625 335.4375 631.132812 327.53125 L 631.132812 287.378906 C 631.132812 278.640625 626 270.078125 615.777344 270.078125 L 586.292969 270.066406 C 576.976562 270.066406 571.140625 277.664062 571.140625 287.136719 L 571.140625 327.527344 C 571.140625 335.378906 581.515625 335.378906 581.515625 327.527344 L 581.515625 288.21875 L 584.816406 288.21875 Z M 584.804688 394.890625 " fill-opacity="1" fill-rule="nonzero"/></g><path fill="#ffe81c" d="M 557.0625 189.054688 C 557.0625 189.917969 556.976562 190.773438 556.808594 191.621094 C 556.640625 192.46875 556.390625 193.292969 556.058594 194.089844 C 555.730469 194.886719 555.324219 195.644531 554.84375 196.363281 C 554.363281 197.082031 553.820312 197.746094 553.207031 198.355469 C 552.597656 198.96875 551.933594 199.511719 551.214844 199.992188 C 550.496094 200.472656 549.738281 200.878906 548.941406 201.207031 C 548.144531 201.539062 547.320312 201.789062 546.472656 201.957031 C 545.625 202.125 544.769531 202.210938 543.90625 202.210938 C 543.042969 202.210938 542.1875 202.125 541.339844 201.957031 C 540.492188 201.789062 539.671875 201.539062 538.875 201.207031 C 538.074219 200.878906 537.316406 200.472656 536.597656 199.992188 C 535.882812 199.511719 535.214844 198.96875 534.605469 198.355469 C 533.996094 197.746094 533.449219 197.082031 532.96875 196.363281 C 532.488281 195.644531 532.085938 194.886719 531.753906 194.089844 C 531.425781 193.292969 531.175781 192.46875 531.007812 191.621094 C 530.835938 190.773438 530.753906 189.917969 530.753906 189.054688 C 530.753906 188.191406 530.835938 187.335938 531.007812 186.488281 C 531.175781 185.640625 531.425781 184.820312 531.753906 184.023438 C 532.085938 183.222656 532.488281 182.464844 532.96875 181.746094 C 533.449219 181.03125 533.996094 180.363281 534.605469 179.753906 C 535.214844 179.144531 535.882812 178.597656 536.597656 178.117188 C 537.316406 177.640625 538.074219 177.234375 538.875 176.902344 C 539.671875 176.574219 540.492188 176.324219 541.339844 176.15625 C 542.1875 175.984375 543.042969 175.902344 543.90625 175.902344 C 544.769531 175.902344 545.625 175.984375 546.472656 176.15625 C 547.320312 176.324219 548.144531 176.574219 548.941406 176.902344 C 549.738281 177.234375 550.496094 177.640625 551.214844 178.117188 C 551.933594 178.597656 552.597656 179.144531 553.207031 179.753906 C 553.820312 180.363281 554.363281 181.03125 554.84375 181.746094 C 555.324219 182.464844 555.730469 183.222656 556.058594 184.023438 C 556.390625 184.820312 556.640625 185.640625 556.808594 186.488281 C 556.976562 187.335938 557.0625 188.191406 557.0625 189.054688 Z M 557.0625 189.054688 " fill-opacity="1" fill-rule="nonzero"/><path fill="#ffe81c" d="M 559.328125 204.957031 L 529.84375 204.941406 C 520.527344 204.941406 514.691406 212.539062 514.691406 222.011719 L 514.691406 262.40625 C 514.691406 270.253906 525.066406 270.253906 525.066406 262.40625 L 525.066406 223.09375 L 528.367188 223.09375 L 528.355469 308.964844 C 533.757812 307.816406 538.707031 306.480469 543.105469 304.988281 L 543.109375 267.890625 L 546.394531 267.890625 L 546.382812 303.800781 C 552.863281 301.320312 557.90625 298.460938 561.132812 295.347656 L 561.15625 223.089844 L 564.386719 223.089844 L 564.386719 262.402344 C 564.386719 270.304688 574.707031 270.304688 574.683594 262.402344 L 574.683594 222.253906 C 574.683594 213.515625 569.550781 204.957031 559.328125 204.957031 Z M 559.328125 204.957031 " fill-opacity="1" fill-rule="nonzero"/><path fill="#ffe81c" d="M 429.25 320.449219 C 429.25 321.3125 429.164062 322.167969 428.996094 323.015625 C 428.828125 323.863281 428.578125 324.6875 428.246094 325.484375 C 427.917969 326.28125 427.511719 327.039062 427.03125 327.757812 C 426.550781 328.476562 426.007812 329.140625 425.394531 329.753906 C 424.785156 330.363281 424.121094 330.910156 423.402344 331.390625 C 422.683594 331.867188 421.925781 332.273438 421.125 332.605469 C 420.328125 332.933594 419.503906 333.183594 418.660156 333.351562 C 417.8125 333.523438 416.957031 333.605469 416.089844 333.605469 C 415.226562 333.605469 414.371094 333.523438 413.523438 333.351562 C 412.675781 333.183594 411.855469 332.933594 411.054688 332.605469 C 410.257812 332.273438 409.5 331.867188 408.78125 331.390625 C 408.0625 330.910156 407.398438 330.363281 406.789062 329.753906 C 406.175781 329.140625 405.632812 328.476562 405.152344 327.757812 C 404.671875 327.039062 404.265625 326.28125 403.9375 325.484375 C 403.605469 324.6875 403.355469 323.863281 403.1875 323.015625 C 403.019531 322.167969 402.933594 321.3125 402.933594 320.449219 C 402.933594 319.585938 403.019531 318.730469 403.1875 317.882812 C 403.355469 317.035156 403.605469 316.210938 403.9375 315.414062 C 404.265625 314.617188 404.671875 313.855469 405.152344 313.140625 C 405.632812 312.421875 406.175781 311.757812 406.789062 311.144531 C 407.398438 310.535156 408.0625 309.988281 408.78125 309.507812 C 409.5 309.027344 410.257812 308.625 411.054688 308.292969 C 411.855469 307.960938 412.675781 307.710938 413.523438 307.542969 C 414.371094 307.375 415.226562 307.292969 416.089844 307.292969 C 416.957031 307.292969 417.8125 307.375 418.660156 307.542969 C 419.503906 307.710938 420.328125 307.960938 421.125 308.292969 C 421.925781 308.625 422.683594 309.027344 423.402344 309.507812 C 424.121094 309.988281 424.785156 310.535156 425.394531 311.144531 C 426.007812 311.757812 426.550781 312.421875 427.03125 313.140625 C 427.511719 313.855469 427.917969 314.617188 428.246094 315.414062 C 428.578125 316.210938 428.828125 317.035156 428.996094 317.882812 C 429.164062 318.730469 429.25 319.585938 429.25 320.449219 Z M 429.25 320.449219 " fill-opacity="1" fill-rule="nonzero"/><path fill="#ffe81c" d="M 431.632812 354.488281 L 434.933594 354.488281 L 434.933594 393.792969 C 434.933594 401.644531 445.308594 401.644531 445.308594 393.792969 L 445.308594 353.402344 C 445.308594 343.925781 439.472656 336.332031 430.15625 336.332031 L 400.671875 336.347656 C 390.445312 336.347656 385.316406 344.90625 385.316406 353.644531 L 385.316406 393.792969 C 385.292969 401.699219 395.613281 401.699219 395.613281 393.792969 L 395.613281 354.484375 L 398.84375 354.484375 L 398.878906 461.152344 C 398.878906 465.222656 402.179688 468.527344 406.25 468.527344 C 410.320312 468.527344 413.621094 465.222656 413.621094 461.152344 L 413.601562 399.28125 L 416.886719 399.28125 L 416.890625 461.152344 C 416.890625 465.222656 420.191406 468.527344 424.269531 468.527344 C 428.335938 468.527344 431.644531 465.222656 431.644531 461.152344 Z M 431.632812 354.488281 " fill-opacity="1" fill-rule="nonzero"/><path fill="#ffe81c" d="M 372.441406 254.183594 C 372.441406 255.046875 372.359375 255.902344 372.191406 256.75 C 372.023438 257.597656 371.773438 258.417969 371.441406 259.21875 C 371.109375 260.015625 370.707031 260.773438 370.226562 261.492188 C 369.746094 262.210938 369.199219 262.875 368.589844 263.488281 C 367.980469 264.097656 367.3125 264.644531 366.597656 265.121094 C 365.878906 265.601562 365.121094 266.007812 364.320312 266.339844 C 363.523438 266.667969 362.699219 266.917969 361.851562 267.085938 C 361.003906 267.257812 360.148438 267.339844 359.285156 267.339844 C 358.421875 267.339844 357.566406 267.257812 356.71875 267.085938 C 355.871094 266.917969 355.050781 266.667969 354.25 266.339844 C 353.453125 266.007812 352.695312 265.601562 351.976562 265.121094 C 351.257812 264.644531 350.59375 264.097656 349.980469 263.488281 C 349.371094 262.875 348.824219 262.210938 348.347656 261.492188 C 347.867188 260.773438 347.460938 260.015625 347.128906 259.21875 C 346.800781 258.417969 346.550781 257.597656 346.382812 256.75 C 346.210938 255.902344 346.128906 255.046875 346.128906 254.183594 C 346.128906 253.320312 346.210938 252.464844 346.382812 251.617188 C 346.550781 250.769531 346.800781 249.945312 347.128906 249.148438 C 347.460938 248.347656 347.867188 247.589844 348.347656 246.871094 C 348.824219 246.15625 349.371094 245.488281 349.980469 244.878906 C 350.59375 244.269531 351.257812 243.722656 351.976562 243.242188 C 352.695312 242.761719 353.453125 242.359375 354.25 242.027344 C 355.050781 241.695312 355.871094 241.445312 356.71875 241.277344 C 357.566406 241.109375 358.421875 241.027344 359.285156 241.027344 C 360.148438 241.027344 361.003906 241.109375 361.851562 241.277344 C 362.699219 241.445312 363.523438 241.695312 364.320312 242.027344 C 365.121094 242.359375 365.878906 242.761719 366.597656 243.242188 C 367.3125 243.722656 367.980469 244.269531 368.589844 244.878906 C 369.199219 245.488281 369.746094 246.15625 370.226562 246.871094 C 370.707031 247.589844 371.109375 248.347656 371.441406 249.148438 C 371.773438 249.945312 372.023438 250.769531 372.191406 251.617188 C 372.359375 252.464844 372.441406 253.320312 372.441406 254.183594 Z M 372.441406 254.183594 " fill-opacity="1" fill-rule="nonzero"/><g clip-path="url(#e64288101e)"><path fill="#ffe81c" d="M 374.828125 288.21875 L 378.128906 288.21875 L 378.128906 327.527344 C 378.128906 335.378906 388.5 335.378906 388.5 327.527344 L 388.5 287.136719 C 388.5 277.660156 382.667969 270.066406 373.351562 270.066406 L 343.863281 270.078125 C 333.640625 270.078125 328.511719 278.640625 328.511719 287.378906 L 328.511719 327.527344 C 328.488281 335.433594 338.804688 335.433594 338.804688 327.527344 L 338.804688 288.21875 L 342.039062 288.21875 L 342.070312 394.886719 C 342.070312 398.957031 345.371094 402.257812 349.441406 402.257812 C 353.511719 402.257812 356.816406 398.957031 356.816406 394.886719 L 356.796875 333.015625 L 360.078125 333.015625 L 360.085938 394.886719 C 360.085938 398.957031 363.386719 402.257812 367.464844 402.257812 C 371.53125 402.257812 374.835938 398.957031 374.835938 394.886719 Z M 374.828125 288.21875 " fill-opacity="1" fill-rule="nonzero"/></g><path fill="#ffe81c" d="M 428.894531 189.054688 C 428.894531 189.917969 428.808594 190.773438 428.640625 191.621094 C 428.472656 192.46875 428.222656 193.292969 427.890625 194.089844 C 427.5625 194.886719 427.15625 195.644531 426.675781 196.363281 C 426.195312 197.082031 425.652344 197.746094 425.039062 198.355469 C 424.429688 198.96875 423.765625 199.511719 423.046875 199.992188 C 422.328125 200.472656 421.570312 200.878906 420.773438 201.207031 C 419.976562 201.539062 419.152344 201.789062 418.304688 201.957031 C 417.457031 202.125 416.601562 202.210938 415.738281 202.210938 C 414.875 202.210938 414.019531 202.125 413.171875 201.957031 C 412.324219 201.789062 411.503906 201.539062 410.707031 201.207031 C 409.90625 200.878906 409.148438 200.472656 408.429688 199.992188 C 407.714844 199.511719 407.046875 198.96875 406.4375 198.355469 C 405.828125 197.746094 405.28125 197.082031 404.800781 196.363281 C 404.324219 195.644531 403.917969 194.886719 403.585938 194.089844 C 403.257812 193.292969 403.007812 192.46875 402.839844 191.621094 C 402.667969 190.773438 402.585938 189.917969 402.585938 189.054688 C 402.585938 188.191406 402.667969 187.335938 402.839844 186.488281 C 403.007812 185.640625 403.257812 184.820312 403.585938 184.023438 C 403.917969 183.222656 404.324219 182.464844 404.800781 181.746094 C 405.28125 181.03125 405.828125 180.363281 406.4375 179.753906 C 407.046875 179.144531 407.714844 178.597656 408.429688 178.117188 C 409.148438 177.640625 409.90625 177.234375 410.707031 176.902344 C 411.503906 176.574219 412.324219 176.324219 413.171875 176.15625 C 414.019531 175.984375 414.875 175.902344 415.738281 175.902344 C 416.601562 175.902344 417.457031 175.984375 418.304688 176.15625 C 419.152344 176.324219 419.976562 176.574219 420.773438 176.902344 C 421.570312 177.234375 422.328125 177.640625 423.046875 178.117188 C 423.765625 178.597656 424.429688 179.144531 425.039062 179.753906 C 425.652344 180.363281 426.195312 181.03125 426.675781 181.746094 C 427.15625 182.464844 427.5625 183.222656 427.890625 184.023438 C 428.222656 184.820312 428.472656 185.640625 428.640625 186.488281 C 428.808594 187.335938 428.894531 188.191406 428.894531 189.054688 Z M 428.894531 189.054688 " fill-opacity="1" fill-rule="nonzero"/><path fill="#ffe81c" d="M 400.316406 204.957031 L 429.804688 204.941406 C 439.121094 204.941406 444.953125 212.539062 444.953125 222.011719 L 444.953125 262.40625 C 444.953125 270.253906 434.582031 270.253906 434.582031 262.40625 L 434.582031 223.09375 L 431.28125 223.09375 L 431.289062 308.960938 C 425.890625 307.8125 420.9375 306.476562 416.539062 304.984375 L 416.535156 267.886719 L 413.253906 267.886719 L 413.261719 303.796875 C 406.78125 301.316406 401.742188 298.457031 398.515625 295.34375 L 398.492188 223.089844 L 395.257812 223.089844 L 395.257812 262.402344 C 395.257812 270.304688 384.941406 270.304688 384.964844 262.402344 L 384.964844 222.253906 C 384.964844 213.515625 390.09375 204.957031 400.316406 204.957031 Z M 400.316406 204.957031 " fill-opacity="1" fill-rule="nonzero"/><path fill="#ffe81c" d="M 492.542969 334.734375 C 492.542969 341.847656 486.902344 347.59375 479.820312 347.835938 C 472.769531 347.59375 467.097656 341.847656 467.097656 334.734375 C 467.097656 331.179688 468.535156 327.964844 470.824219 325.601562 C 473.117188 323.242188 476.296875 321.773438 479.820312 321.636719 C 486.898438 321.875 492.542969 327.621094 492.542969 334.734375 Z M 492.542969 334.734375 " fill-opacity="1" fill-rule="nonzero"/><g clip-path="url(#972bea594a)"><path fill="#ffe81c" d="M 510.15625 367.945312 L 510.15625 408.058594 C 510.191406 415.964844 499.863281 415.964844 499.863281 408.058594 L 499.863281 368.765625 L 496.648438 368.765625 L 496.613281 475.4375 C 496.613281 479.507812 493.292969 482.792969 489.226562 482.792969 C 485.15625 482.792969 481.835938 479.507812 481.835938 475.4375 L 481.871094 413.566406 L 477.769531 413.566406 L 477.804688 475.4375 C 477.804688 479.507812 474.484375 482.792969 470.417969 482.792969 C 466.347656 482.792969 463.0625 479.507812 463.0625 475.4375 L 463.03125 368.765625 L 459.78125 368.765625 L 459.78125 408.058594 C 459.78125 415.964844 449.453125 415.964844 449.484375 408.058594 L 449.484375 367.945312 C 449.484375 359.1875 454.617188 350.640625 464.84375 350.640625 L 494.804688 350.640625 C 505.027344 350.640625 510.15625 359.1875 510.15625 367.945312 Z M 510.15625 367.945312 " fill-opacity="1" fill-rule="nonzero"/></g><g clip-path="url(#2cae5b8b59)"><path fill="#ffe81c" d="M 492.507812 178.945312 C 492.507812 186.058594 486.867188 191.804688 479.820312 192.046875 C 472.769531 191.804688 467.132812 186.058594 467.132812 178.945312 C 467.132812 171.832031 472.769531 166.085938 479.820312 165.847656 C 486.867188 166.085938 492.507812 171.832031 492.507812 178.945312 Z M 492.507812 178.945312 " fill-opacity="1" fill-rule="nonzero"/></g><path fill="#ffe81c" d="M 510.15625 212.121094 L 510.15625 252.273438 C 510.15625 260.179688 499.863281 260.179688 499.863281 252.273438 L 499.863281 212.976562 L 496.613281 212.976562 L 496.578125 314.316406 C 491.789062 314.589844 486.863281 314.761719 481.835938 314.796875 L 481.835938 257.78125 L 477.796875 257.78125 L 477.796875 314.796875 C 472.765625 314.761719 467.847656 314.589844 463.054688 314.316406 L 463.019531 212.976562 L 459.808594 212.976562 L 459.808594 252.273438 C 459.808594 260.179688 449.476562 260.179688 449.511719 252.273438 L 449.511719 212.121094 C 449.511719 203.398438 454.640625 194.847656 464.867188 194.847656 L 479.8125 194.816406 L 494.792969 194.847656 C 505.027344 194.847656 510.15625 203.398438 510.15625 212.121094 Z M 510.15625 212.121094 " fill-opacity="1" fill-rule="nonzero"/></svg>