<?xml version="1.0" standalone="no"?>
<!DOCTYPE svg PUBLIC "-//W3C//DTD SVG 20010904//EN"
 "http://www.w3.org/TR/2001/REC-SVG-20010904/DTD/svg10.dtd">
<svg version="1.0" xmlns="http://www.w3.org/2000/svg"
 width="1280.000000pt" height="1280.000000pt" viewBox="0 0 1280.000000 1280.000000"
 preserveAspectRatio="xMidYMid meet">

<g transform="translate(0.000000,1280.000000) scale(0.100000,-0.100000)"
fill="#000000" stroke="none">
<path d="M4585 8816 c-79 -37 -227 -201 -323 -358 -344 -563 -333 -1265 29
-1805 105 -157 447 -591 637 -808 327 -374 862 -906 1128 -1119 334 -269 604
-472 724 -546 187 -114 351 -179 575 -227 165 -35 423 -36 590 -3 292 58 511
155 736 327 180 137 243 223 243 338 2 123 6 117 -452 577 -284 285 -430 425
-464 443 -66 36 -140 43 -214 20 -55 -17 -71 -31 -265 -222 -115 -114 -213
-203 -223 -203 -34 0 -278 178 -491 359 -417 354 -1013 966 -1296 1331 -82
105 -209 290 -209 303 0 6 89 100 198 211 117 119 206 217 217 241 11 23 21
70 23 112 7 127 11 122 -461 593 -315 313 -429 420 -465 437 -66 32 -169 31
-237 -1z"/>
<path d="M6293 8261 c-37 -23 -47 -50 -38 -97 9 -48 53 -74 125 -74 79 0 286
-27 383 -50 347 -80 656 -256 902 -511 301 -313 471 -692 505 -1124 16 -194
17 -201 47 -225 38 -30 88 -26 124 9 28 28 29 33 29 118 0 102 -29 313 -59
430 -52 201 -161 447 -278 625 -329 500 -868 834 -1458 903 -177 21 -242 20
-282 -4z"/>
<path d="M6459 7665 c-35 -19 -54 -65 -42 -101 17 -51 52 -67 165 -75 394 -26
730 -255 897 -611 60 -127 89 -240 100 -387 7 -100 10 -115 32 -137 14 -14 41
-27 61 -30 29 -5 41 -1 68 23 32 29 33 31 32 111 -3 236 -100 511 -251 712
-119 159 -325 324 -499 400 -204 90 -485 137 -563 95z"/>
<path d="M6324 7176 c-37 -31 -46 -63 -28 -106 17 -39 56 -56 159 -65 245 -21
461 -173 574 -401 37 -76 59 -157 70 -267 7 -70 14 -93 31 -112 42 -45 102
-41 142 9 22 27 24 133 4 226 -88 410 -427 709 -836 737 -82 5 -87 4 -116 -21z"/>
</g>
</svg>
