<svg xmlns="http://www.w3.org/2000/svg" xmlns:xlink="http://www.w3.org/1999/xlink" width="500" zoomAndPan="magnify" viewBox="0 0 375 374.999991" height="500" preserveAspectRatio="xMidYMid meet" version="1.0"><defs><clipPath id="e99dea7dab"><path d="M 117 115 L 262 115 L 262 260.316406 L 117 260.316406 Z M 117 115 " clip-rule="nonzero"/></clipPath></defs><rect x="-37.5" width="450" fill="#ffffff" y="-37.499999" height="449.999989" fill-opacity="1"/><rect x="-37.5" width="450" fill="#ffffff" y="-37.499999" height="449.999989" fill-opacity="1"/><g clip-path="url(#e99dea7dab)"><path fill="#000000" d="M 259.152344 233.640625 L 236.902344 211.371094 C 233.558594 208.023438 228.125 208.023438 224.777344 211.371094 L 214.167969 221.992188 C 198.066406 212.429688 165.0625 179.425781 155.511719 163.277344 L 166.121094 152.660156 C 169.46875 149.308594 169.46875 143.871094 166.121094 140.519531 L 143.902344 118.277344 C 140.554688 114.929688 135.09375 114.929688 131.746094 118.277344 C 114.53125 135.539062 112.5 162.878906 127.113281 182.457031 C 127.140625 182.488281 152.539062 218.699219 187.34375 244.691406 C 192.003906 247.410156 203.1875 260.207031 224.40625 260.207031 C 237.449219 260.207031 249.945312 255.027344 259.152344 245.808594 C 262.5 242.429688 262.5 237.019531 259.152344 233.640625 Z M 259.152344 233.640625 " fill-opacity="1" fill-rule="nonzero"/></g><path fill="#000000" d="M 224.980469 189.957031 C 226.550781 189.957031 227.839844 188.671875 227.839844 187.097656 C 227.839844 166.570312 211.164062 149.882812 190.660156 149.882812 C 189.085938 149.882812 187.800781 151.167969 187.800781 152.746094 C 187.800781 154.320312 189.085938 155.605469 190.660156 155.605469 C 208.019531 155.605469 222.117188 169.71875 222.117188 187.097656 C 222.117188 188.671875 223.378906 189.957031 224.980469 189.957031 Z M 224.980469 189.957031 " fill-opacity="1" fill-rule="nonzero"/><path fill="#000000" d="M 186.886719 163.996094 C 185.3125 163.996094 184.023438 165.28125 184.023438 166.855469 C 184.023438 168.429688 185.3125 169.71875 186.886719 169.71875 C 198.523438 169.71875 207.992188 179.195312 207.992188 190.847656 C 207.992188 192.421875 209.277344 193.707031 210.851562 193.707031 C 212.421875 193.707031 213.710938 192.421875 213.710938 190.847656 C 213.710938 176.046875 201.671875 163.996094 186.886719 163.996094 Z M 186.886719 163.996094 " fill-opacity="1" fill-rule="nonzero"/><path fill="#000000" d="M 185.828125 138.117188 C 215.484375 138.117188 239.59375 162.25 239.59375 191.933594 C 239.59375 193.507812 240.878906 194.796875 242.453125 194.796875 C 244.023438 194.796875 245.3125 193.507812 245.3125 191.933594 C 245.3125 159.097656 218.628906 132.390625 185.828125 132.390625 C 184.253906 132.390625 182.96875 133.679688 182.96875 135.253906 C 182.96875 136.828125 184.253906 138.117188 185.828125 138.117188 Z M 185.828125 138.117188 " fill-opacity="1" fill-rule="nonzero"/></svg>